<?xml version="1.0" encoding="utf-8"?>
<!-- Generator: Adobe Illustrator 27.5.0, SVG Export Plug-In . SVG Version: 6.00 Build 0)  -->
<svg version="1.1" xmlns="http://www.w3.org/2000/svg" xmlns:xlink="http://www.w3.org/1999/xlink" x="0px" y="0px"
	 viewBox="0 0 500 500" style="enable-background:new 0 0 500 500;" xml:space="preserve">
<g id="Background_Complete">
	<g>
		<rect y="382.398" style="fill:#EBEBEB;" width="500" height="0.25"/>
		<rect x="416.779" y="398.494" style="fill:#EBEBEB;" width="33.122" height="0.25"/>
		<rect x="322.527" y="401.208" style="fill:#EBEBEB;" width="8.693" height="0.25"/>
		<rect x="396.586" y="389.208" style="fill:#EBEBEB;" width="19.192" height="0.25"/>
		<rect x="52.459" y="390.888" style="fill:#EBEBEB;" width="43.193" height="0.25"/>
		<rect x="104.556" y="390.888" style="fill:#EBEBEB;" width="6.333" height="0.25"/>
		<rect x="131.471" y="395.111" style="fill:#EBEBEB;" width="93.676" height="0.25"/>
		<path style="fill:#EBEBEB;" d="M237.014,337.8H43.915c-3.147,0-5.708-2.561-5.708-5.708V60.66c0-3.147,2.561-5.708,5.708-5.708
			h193.099c3.146,0,5.707,2.561,5.707,5.708v271.432C242.721,335.239,240.16,337.8,237.014,337.8z M43.915,55.203
			c-3.01,0-5.458,2.448-5.458,5.458v271.432c0,3.01,2.448,5.458,5.458,5.458h193.099c3.009,0,5.457-2.448,5.457-5.458V60.66
			c0-3.009-2.448-5.458-5.457-5.458H43.915z"/>
		<path style="fill:#EBEBEB;" d="M453.31,337.8H260.212c-3.147,0-5.707-2.561-5.707-5.708V60.66c0-3.147,2.561-5.708,5.707-5.708
			H453.31c3.148,0,5.708,2.561,5.708,5.708v271.432C459.019,335.239,456.458,337.8,453.31,337.8z M260.212,55.203
			c-3.009,0-5.457,2.448-5.457,5.458v271.432c0,3.01,2.448,5.458,5.457,5.458H453.31c3.01,0,5.458-2.448,5.458-5.458V60.66
			c0-3.009-2.448-5.458-5.458-5.458H260.212z"/>
	</g>
	<g>
		<g>
			<rect x="73.142" y="90.06" style="fill:#EBEBEB;" width="143.132" height="147.895"/>
			<rect x="78.142" y="90.06" style="fill:#F0F0F0;" width="143.132" height="147.895"/>
			<rect x="81.751" y="93.566" style="fill:#E0E0E0;" width="135.729" height="140.953"/>
			<rect x="81.749" y="93.564" style="fill:#F5F5F5;" width="132.34" height="140.95"/>
			<rect x="146.602" y="93.566" style="fill:#EBEBEB;" width="2.687" height="140.953"/>
			<polygon style="fill:#FFFFFF;" points="131.129,93.564 93.409,234.514 89.789,234.514 127.509,93.564 			"/>
			<rect x="148.137" y="91.392" style="fill:#F0F0F0;" width="2.304" height="145.828"/>
			<polygon style="fill:#FFFFFF;" points="117.439,93.564 81.749,226.954 81.749,153.634 97.819,93.564 			"/>
			<polygon style="fill:#FFFFFF;" points="214.089,106.354 214.089,119.884 183.409,234.514 179.789,234.514 			"/>
			<polygon style="fill:#FFFFFF;" points="214.089,133.674 214.089,206.994 206.729,234.514 187.109,234.514 			"/>
		</g>
		<g>
			<g>
				<path style="fill:#F5F5F5;" d="M323.727,283.109L323.727,283.109h120.141l0,0c0,4.411-3.472,8.032-7.878,8.231
					c-12.911,0.582-32.773,2.625-39.072,9.769c-11.741,13.317-10.604,60.095,3.46,70.929c4.409,3.397,17.265,10.142,17.265,10.142
					h-67.691c0,0,12.012-6.881,16.186-10.142c13.984-10.923,14.391-57.674,2.595-70.929c-6.052-6.801-24.669-8.998-37.16-9.691
					C327.168,291.173,323.727,287.522,323.727,283.109z"/>
				<path style="fill:#E6E6E6;" d="M428.986,291.776c-12.203,0.978-26.828,3.39-32.068,9.333c-1.551,1.759-2.87,4.114-3.972,6.88
					h-20.178c-1.131-2.769-2.473-5.125-4.035-6.88c-5.26-5.91-20.006-8.342-31.977-9.333H428.986z"/>
			</g>
			<g>
				<polygon style="fill:#EBEBEB;" points="374.904,283.167 376.538,264.493 352.856,264.493 351.222,283.167 				"/>
				<polygon style="fill:#E0E0E0;" points="374.904,283.167 376.538,264.493 377.813,264.493 376.179,283.167 				"/>
				<polygon style="fill:#F0F0F0;" points="372.656,281.263 373.957,266.397 355.104,266.397 353.803,281.263 				"/>
				<polygon style="fill:#FAFAFA;" points="371.211,280.04 372.297,267.621 356.548,267.621 355.462,280.04 				"/>
			</g>
			<g>
				<g>
					<polygon style="fill:#E6E6E6;" points="382.586,283.109 406.375,283.109 403.736,252.939 379.946,252.939 					"/>
					<polygon style="fill:#E0E0E0;" points="382.586,283.109 381.45,283.109 378.81,252.939 379.946,252.939 					"/>
					<polygon style="fill:#F0F0F0;" points="384.742,280.033 403.681,280.033 401.58,256.015 382.641,256.015 					"/>
					<polygon style="fill:#FAFAFA;" points="386.128,278.056 401.949,278.056 400.194,257.992 384.373,257.992 					"/>
				</g>
				<path style="fill:#EBEBEB;" d="M394.119,267.019L394.119,267.019c-1.075,1.075-2.817,1.075-3.892,0l0,0
					c-1.075-1.075-1.075-2.817,0-3.892l0,0c1.075-1.075,2.817-1.075,3.892,0l0,0C395.194,264.202,395.194,265.944,394.119,267.019z"
					/>
				<path style="fill:#F0F0F0;" d="M392.954,270.39L392.954,270.39c0.787-0.787,2.063-0.787,2.85,0l0,0
					c1.269,1.27,0.37,3.44-1.425,3.44l0,0C392.584,273.83,391.685,271.66,392.954,270.39z"/>
			</g>
		</g>
		<g>
			<path style="fill:#F5F5F5;" d="M191.335,376.009h23.17l-12.181-99.206c-0.516-4.199-4.338-7.604-8.538-7.604h-7.963H92.686
				l14.821,106.81H191.335z"/>
			<path style="fill:#F0F0F0;" d="M117.849,376.009h-23.17l-12.181-99.206c-0.516-4.199,2.471-7.604,6.67-7.604h7.963
				c4.2,0,8.022,3.404,8.538,7.604L117.849,376.009z"/>
			<g>
				<path style="fill:#E6E6E6;" d="M126.385,375.892l-4.198-47.984c-0.188-2.143-1.843-3.866-3.978-4.138l-1.726-0.22
					c-2.863-0.365-5.084-2.676-5.336-5.551l-0.765-8.749c-0.314-3.586,2.512-6.67,6.112-6.67H77.771c-3.6,0-6.426,3.084-6.112,6.67
					l0.766,8.749c0.251,2.875,2.473,5.186,5.335,5.551l1.727,0.22c2.134,0.272,3.79,1.995,3.977,4.138l4.198,47.984
					c0.306,3.498,3.235,6.183,6.747,6.183h38.723C129.62,382.074,126.691,379.39,126.385,375.892z"/>
			</g>
			<path style="fill:#E6E6E6;" d="M232.948,315.896c0.659-7.535,6.969-13.317,14.533-13.317h-18.737h-14.975
				c-7.564,0-13.874,5.782-14.533,13.317l-3.328,38.037h33.712L232.948,315.896z"/>
			<path style="fill:#F0F0F0;" d="M262.455,302.579H247.48c-7.564,0-13.873,5.782-14.533,13.317l-3.328,38.037h-80.29l-3.328-38.037
				c-0.659-7.535-6.969-13.317-14.533-13.317h-14.975c-3.6,0-6.426,3.084-6.112,6.67l0.765,8.749
				c0.252,2.875,2.473,5.186,5.336,5.551l1.726,0.22c2.134,0.272,3.79,1.995,3.977,4.138l4.198,47.984
				c0.306,3.498,3.235,6.183,6.747,6.183h112.686c3.512,0,6.441-2.684,6.747-6.183l4.198-47.984
				c0.188-2.143,1.843-3.866,3.977-4.138l1.727-0.22c2.863-0.365,5.084-2.676,5.336-5.552l0.765-8.749
				C268.881,305.663,266.055,302.579,262.455,302.579z"/>
		</g>
		<g>
			<g>
				
					<rect x="381.294" y="106.594" transform="matrix(-1.836970e-16 1 -1 -1.836970e-16 525.3273 -268.2654)" style="fill:#E0E0E0;" width="31.005" height="43.873"/>
				
					<rect x="383.315" y="108.658" transform="matrix(-1.836970e-16 1 -1 -1.836970e-16 525.3273 -268.2654)" style="fill:#EBEBEB;" width="26.962" height="39.747"/>
			</g>
			<g>
				
					<rect x="366.08" y="145.545" transform="matrix(-1.836970e-16 1 -1 -1.836970e-16 549.0634 -214.101)" style="fill:#E0E0E0;" width="31.005" height="43.873"/>
				
					<rect x="368.101" y="147.608" transform="matrix(-1.836970e-16 1 -1 -1.836970e-16 549.0634 -214.101)" style="fill:#EBEBEB;" width="26.962" height="39.747"/>
			</g>
			<g>
				
					<rect x="338.621" y="104.53" transform="matrix(-1 -1.224647e-16 1.224647e-16 -1 705.158 248.5637)" style="fill:#E0E0E0;" width="27.917" height="39.503"/>
				
					<rect x="340.441" y="106.388" transform="matrix(-1 -1.224647e-16 1.224647e-16 -1 705.158 248.5637)" style="fill:#EBEBEB;" width="24.276" height="35.788"/>
			</g>
			<g>
				
					<rect x="322.739" y="151.979" transform="matrix(-1 -1.224647e-16 1.224647e-16 -1 676.4826 347.8307)" style="fill:#E0E0E0;" width="31.005" height="43.873"/>
				
					<rect x="324.76" y="154.042" transform="matrix(-1 -1.224647e-16 1.224647e-16 -1 676.4826 347.8307)" style="fill:#EBEBEB;" width="26.962" height="39.747"/>
			</g>
			<g>
				
					<rect x="299.828" y="114.719" transform="matrix(6.123234e-17 -1 1 6.123234e-17 180.0712 443.8617)" style="fill:#E0E0E0;" width="24.277" height="34.352"/>
				
					<rect x="301.411" y="116.335" transform="matrix(6.123234e-17 -1 1 6.123234e-17 180.0712 443.8618)" style="fill:#EBEBEB;" width="21.111" height="31.121"/>
			</g>
		</g>
	</g>
</g>
<g id="Background_Simple" style="display:none;">
	<g style="display:inline;">
		<path style="fill:#407BFF;" d="M241.936,74.075c7.832-1.91,16.622-1.622,26.341,1.643c15.617,5.247,27.043,19.004,34.173,33.856
			c13.796,28.739,17.651,60.899,27.547,90.911c2.714,8.23,5.923,16.453,11.228,23.305c22.071,28.507,82.754,12.137,82.176,62.137
			c-0.163,14.13-7.771,27.655-18.876,36.394c-32.69,25.724-78.654,11.019-113.588-0.656c-32.732-10.939-61.068-12.275-93.872,0.819
			c-27.802,11.097-56.895,29.991-88.174,24.881c-31.807-5.197-46.032-36.584-40.707-66.182c5.677-31.551,30.416-54.82,58.857-67.405
			c16.966-7.508,39.284-12.096,52.582-25.755c6.83-7.015,9.803-16.855,11.975-26.402c3.458-15.205,5.5-30.795,10.651-45.513
			C208.702,97.669,221.931,78.955,241.936,74.075z"/>
		<path style="opacity:0.9;fill:#FFFFFF;" d="M241.936,74.075c7.832-1.91,16.622-1.622,26.341,1.643
			c15.617,5.247,27.043,19.004,34.173,33.856c13.796,28.739,17.651,60.899,27.547,90.911c2.714,8.23,5.923,16.453,11.228,23.305
			c22.071,28.507,82.754,12.137,82.176,62.137c-0.163,14.13-7.771,27.655-18.876,36.394c-32.69,25.724-78.654,11.019-113.588-0.656
			c-32.732-10.939-61.068-12.275-93.872,0.819c-27.802,11.097-56.895,29.991-88.174,24.881
			c-31.807-5.197-46.032-36.584-40.707-66.182c5.677-31.551,30.416-54.82,58.857-67.405c16.966-7.508,39.284-12.096,52.582-25.755
			c6.83-7.015,9.803-16.855,11.975-26.402c3.458-15.205,5.5-30.795,10.651-45.513C208.702,97.669,221.931,78.955,241.936,74.075z"/>
	</g>
</g>
<g id="Shadow_1_">
	<ellipse id="_x3C_Path_x3E__359_" style="fill:#F5F5F5;" cx="250" cy="416.238" rx="193.889" ry="11.323"/>
</g>
<g id="Device">
	<g>
		<path style="fill:#263238;" d="M342.287,409.288H198.617c-5.745,0-10.402-4.657-10.402-10.402V143.861
			c0-5.745,4.657-10.402,10.402-10.402h143.669c5.745,0,10.402,4.657,10.402,10.402v255.024
			C352.689,404.63,348.032,409.288,342.287,409.288z"/>
		<path style="fill:#407BFF;" d="M347.139,143.369v255.479c0,2.266-1.821,4.026-4.087,4.026H197.417
			c-2.083,0-3.651-1.612-3.651-3.695V143.038c0-1.804,1.325-3.381,3.129-3.381h36.409c1.028,0,1.961,0.671,2.344,1.638l1.508,3.712
			c0.383,0.959,1.316,1.621,2.344,1.621h61.985c1.029,0,1.961-0.636,2.344-1.595l1.508-3.73c0.383-0.967,1.316-1.647,2.344-1.647
			h35.886C345.553,139.656,347.139,141.382,347.139,143.369z"/>
		<path style="opacity:0.3;enable-background:new    ;" d="M347.139,143.369v255.479c0,2.266-1.821,4.026-4.087,4.026H197.417
			c-2.083,0-3.651-1.612-3.651-3.695V143.038c0-1.804,1.325-3.381,3.129-3.381h36.409c1.028,0,1.961,0.671,2.344,1.638l1.508,3.712
			c0.383,0.959,1.316,1.621,2.344,1.621h61.985c1.029,0,1.961-0.636,2.344-1.595l1.508-3.73c0.383-0.967,1.316-1.647,2.344-1.647
			h35.886C345.553,139.656,347.139,141.382,347.139,143.369z"/>
		<rect x="193.766" y="156.867" style="opacity:0.7;fill:#FFFFFF;enable-background:new    ;" width="153.373" height="227.208"/>
		<g>
			<g>
				
					<rect x="210.668" y="148.233" transform="matrix(-1 -1.224647e-16 1.224647e-16 -1 423.2299 298.9907)" style="opacity:0.6;fill:#FFFFFF;enable-background:new    ;" width="1.895" height="2.526"/>
				
					<rect x="207.58" y="147.39" transform="matrix(-1 -1.224647e-16 1.224647e-16 -1 417.0551 298.1482)" style="opacity:0.6;fill:#FFFFFF;enable-background:new    ;" width="1.895" height="3.368"/>
				
					<rect x="204.493" y="146.548" transform="matrix(-1 -1.224647e-16 1.224647e-16 -1 410.8803 297.3056)" style="opacity:0.6;fill:#FFFFFF;enable-background:new    ;" width="1.895" height="4.211"/>
				
					<rect x="201.406" y="145.705" transform="matrix(-1 -1.224647e-16 1.224647e-16 -1 404.7055 296.4631)" style="opacity:0.6;fill:#FFFFFF;enable-background:new    ;" width="1.895" height="5.053"/>
			</g>
			<g>
				<rect x="328.658" y="147.311" style="opacity:0.6;fill:#FFFFFF;enable-background:new    ;" width="1.123" height="2.526"/>
				
					<rect x="330.553" y="146.389" transform="matrix(-1 -1.224647e-16 1.224647e-16 -1 670.0518 297.1473)" style="opacity:0.6;fill:#FFFFFF;enable-background:new    ;" width="8.946" height="4.369"/>
			</g>
		</g>
		<g>
			<path style="fill:#407BFF;" d="M240.945,356.851v0.577h-4.464v-6.313h4.329v0.577h-3.661v2.245h3.265v0.568h-3.265v2.345H240.945
				z"/>
			<path style="fill:#407BFF;" d="M246.749,354.678v2.75h-0.64v-2.688c0-1.001-0.523-1.515-1.425-1.515
				c-1.019,0-1.659,0.631-1.659,1.713v2.489h-0.641v-4.743h0.613v0.874c0.343-0.577,0.983-0.91,1.804-0.91
				C245.956,352.648,246.749,353.315,246.749,354.678z"/>
			<path style="fill:#407BFF;" d="M248.035,355.056c0-1.415,1.028-2.407,2.444-2.407c0.802,0,1.479,0.315,1.857,0.938l-0.478,0.325
				c-0.325-0.479-0.83-0.704-1.379-0.704c-1.037,0-1.795,0.74-1.795,1.849c0,1.118,0.758,1.849,1.795,1.849
				c0.55,0,1.055-0.216,1.379-0.694l0.478,0.325c-0.379,0.613-1.055,0.938-1.857,0.938
				C249.063,357.473,248.035,356.472,248.035,355.056z"/>
			<path style="fill:#407BFF;" d="M255.983,352.648v0.622c-0.054,0-0.108-0.009-0.153-0.009c-0.992,0-1.596,0.631-1.596,1.749v2.417
				h-0.641v-4.743h0.613v0.929C254.504,352.981,255.108,352.648,255.983,352.648z"/>
			<path style="fill:#407BFF;" d="M261.334,352.685l-2.372,5.311c-0.397,0.929-0.902,1.227-1.578,1.227
				c-0.442,0-0.866-0.145-1.154-0.434l0.298-0.478c0.234,0.234,0.523,0.36,0.866,0.36c0.424,0,0.712-0.198,0.983-0.793l0.207-0.46
				l-2.12-4.734h0.667l1.786,4.03l1.786-4.03H261.334z"/>
			<path style="fill:#407BFF;" d="M267.046,355.056c0,1.443-1.01,2.417-2.363,2.417c-0.757,0-1.407-0.324-1.803-0.938v2.642h-0.641
				v-6.492h0.613v0.938c0.388-0.631,1.046-0.974,1.831-0.974C266.036,352.648,267.046,353.622,267.046,355.056z M266.406,355.056
				c0-1.1-0.767-1.849-1.768-1.849c-1.01,0-1.768,0.749-1.768,1.849c0,1.109,0.758,1.849,1.768,1.849
				C265.639,356.904,266.406,356.165,266.406,355.056z"/>
			<path style="fill:#407BFF;" d="M270.856,357.139c-0.252,0.226-0.631,0.334-1.001,0.334c-0.893,0-1.389-0.505-1.389-1.38v-2.867
				h-0.848v-0.541h0.848v-1.037h0.64v1.037h1.443v0.541h-1.443v2.831c0,0.56,0.289,0.866,0.821,0.866
				c0.262,0,0.523-0.081,0.704-0.243L270.856,357.139z"/>
			<path style="fill:#407BFF;" d="M271.878,351.188c0-0.244,0.208-0.451,0.469-0.451c0.262,0,0.469,0.198,0.469,0.442
				c0,0.261-0.199,0.469-0.469,0.469C272.086,351.647,271.878,351.44,271.878,351.188z M272.022,352.685h0.641v4.743h-0.641V352.685
				z"/>
			<path style="fill:#407BFF;" d="M278.815,354.678v2.75h-0.64v-2.688c0-1.001-0.523-1.515-1.425-1.515
				c-1.019,0-1.659,0.631-1.659,1.713v2.489h-0.641v-4.743h0.613v0.874c0.343-0.577,0.983-0.91,1.804-0.91
				C278.022,352.648,278.815,353.315,278.815,354.678z"/>
			<path style="fill:#407BFF;" d="M284.971,352.685v4.166c0,1.632-0.803,2.372-2.372,2.372c-0.866,0-1.713-0.262-2.209-0.73
				l0.324-0.487c0.451,0.406,1.136,0.649,1.867,0.649c1.2,0,1.75-0.55,1.75-1.723v-0.605c-0.397,0.605-1.073,0.92-1.849,0.92
				c-1.353,0-2.38-0.946-2.38-2.309c0-1.361,1.028-2.29,2.38-2.29c0.794,0,1.479,0.324,1.876,0.946v-0.91H284.971z M284.348,354.939
				c0-1.027-0.757-1.732-1.803-1.732c-1.046,0-1.795,0.704-1.795,1.732c0,1.028,0.749,1.741,1.795,1.741
				C283.591,356.68,284.348,355.967,284.348,354.939z"/>
			<path style="fill:#407BFF;" d="M293.165,351.115v0.46l-2.642,5.853h-0.704l2.597-5.735h-3.247v1.182h-0.64v-1.759H293.165z"/>
			<path style="fill:#407BFF;" d="M298.139,355.57c0,1.073-0.749,1.911-2.291,1.911c-0.911,0-1.776-0.315-2.264-0.812l0.316-0.514
				c0.406,0.424,1.127,0.73,1.939,0.73c1.073,0,1.641-0.523,1.641-1.29c0-0.812-0.505-1.316-2.11-1.316h-1.344l0.325-3.165h3.454
				v0.577h-2.886l-0.217,2.011h0.812C297.418,353.703,298.139,354.452,298.139,355.57z"/>
			<path style="fill:#407BFF;" d="M298.783,352.783c0-1.027,0.577-1.713,1.425-1.713c0.838,0,1.425,0.676,1.425,1.713
				s-0.586,1.714-1.425,1.714C299.36,354.497,298.783,353.811,298.783,352.783z M301.182,352.783c0-0.82-0.388-1.308-0.974-1.308
				c-0.595,0-0.974,0.496-0.974,1.308s0.379,1.308,0.974,1.308C300.794,354.091,301.182,353.604,301.182,352.783z M304.032,351.115
				h0.532l-4.311,6.313h-0.532L304.032,351.115z M302.652,355.76c0-1.028,0.586-1.714,1.425-1.714c0.848,0,1.425,0.686,1.425,1.714
				c0,1.027-0.577,1.713-1.425,1.713C303.238,357.473,302.652,356.787,302.652,355.76z M305.05,355.76
				c0-0.812-0.378-1.308-0.974-1.308c-0.586,0-0.974,0.486-0.974,1.308c0,0.82,0.388,1.308,0.974,1.308
				C304.672,357.067,305.05,356.571,305.05,355.76z"/>
		</g>
		<g>
			<path style="opacity:0.6;fill:#FFFFFF;enable-background:new    ;" d="M270.427,140.019c0,1.162-0.943,2.105-2.105,2.105
				c-1.163,0-2.105-0.943-2.105-2.105c0-1.163,0.943-2.105,2.105-2.105C269.484,137.914,270.427,138.857,270.427,140.019z"/>
			<path style="opacity:0.6;fill:#FFFFFF;enable-background:new    ;" d="M274.688,140.019c0,0.745-0.604,1.348-1.349,1.348
				c-0.745,0-1.349-0.604-1.349-1.348s0.604-1.349,1.349-1.349C274.084,138.671,274.688,139.275,274.688,140.019z"/>
		</g>
		<rect x="193.766" y="156.867" style="fill:#407BFF;" width="153.373" height="26.231"/>
		<g style="opacity:0.2;">
			<path d="M263.473,202.011c-0.402,0.049-0.805,0.096-1.205,0.153c-0.435,0.446-0.991,0.692-1.641,0.692
				c-0.384,0-0.739-0.081-1.054-0.24c-0.376,0.072-0.753,0.142-1.126,0.222c0.588,0.543,1.33,0.849,2.18,0.849
				C261.84,203.687,262.848,203.083,263.473,202.011z"/>
			<path d="M268.957,203.687c1.359,0,2.46-0.757,3.051-2.085c-0.327-0.008-0.652-0.022-0.981-0.025
				c-0.456,0.828-1.178,1.278-2.07,1.278c-0.852,0-1.547-0.412-2.005-1.168c-0.325,0.02-0.648,0.049-0.972,0.074
				C266.583,202.994,267.651,203.687,268.957,203.687z"/>
			<path d="M276.191,203.611v-1.769c-0.301-0.029-0.605-0.045-0.906-0.069v1.838H276.191z"/>
			<path d="M280.733,203.611v-1.14c-0.302-0.053-0.602-0.113-0.906-0.162v1.302H280.733z"/>
			<path d="M284.882,203.348c0.336,0.167,0.707,0.26,1.1,0.301C285.616,203.548,285.252,203.441,284.882,203.348z"/>
			<path d="M225.836,227.894c2.039,0,3.525-1.675,3.525-4.481c0-1.535-0.455-2.715-1.19-3.485c-0.198,0.211-0.404,0.414-0.599,0.628
				c0.535,0.616,0.858,1.573,0.858,2.857c0,2.354-1.058,3.65-2.593,3.65c-1.012,0-1.808-0.573-2.239-1.631
				c-0.197,0.269-0.387,0.543-0.58,0.816C223.64,227.3,224.635,227.894,225.836,227.894z"/>
			<polygon points="232.164,227.818 233.071,227.818 233.071,219.006 230.087,219.006 230.087,219.812 232.164,219.812 			"/>
			<polygon points="236.707,227.818 237.613,227.818 237.613,219.006 234.63,219.006 234.63,219.812 236.707,219.812 			"/>
			<polygon points="241.249,227.818 242.155,227.818 242.155,219.006 239.172,219.006 239.172,219.812 241.249,219.812 			"/>
			<polygon points="245.791,227.818 246.698,227.818 246.698,219.006 243.714,219.006 243.714,219.812 245.791,219.812 			"/>
			<path d="M248.798,223.413c0,2.807,1.473,4.481,3.512,4.481c2.039,0,3.524-1.675,3.524-4.481c0-2.808-1.485-4.482-3.524-4.482
				C250.27,218.93,248.798,220.605,248.798,223.413z M252.31,219.761c1.536,0,2.593,1.297,2.593,3.651
				c0,2.354-1.058,3.65-2.593,3.65c-1.536,0-2.593-1.297-2.593-3.65C249.717,221.058,250.774,219.761,252.31,219.761z"/>
			<path d="M260.639,218.93c-2.04,0-3.512,1.675-3.512,4.482c0,2.807,1.473,4.481,3.512,4.481c2.039,0,3.524-1.675,3.524-4.481
				C264.164,220.605,262.678,218.93,260.639,218.93z M260.639,227.063c-1.536,0-2.593-1.297-2.593-3.65
				c0-2.355,1.057-3.651,2.593-3.651c1.536,0,2.593,1.297,2.593,3.651C263.233,225.766,262.175,227.063,260.639,227.063z"/>
			<path d="M268.969,218.93c-2.04,0-3.512,1.675-3.512,4.482c0,2.807,1.473,4.481,3.512,4.481c2.039,0,3.524-1.675,3.524-4.481
				C272.493,220.605,271.008,218.93,268.969,218.93z M268.969,227.063c-1.536,0-2.593-1.297-2.593-3.65
				c0-2.355,1.057-3.651,2.593-3.651c1.536,0,2.593,1.297,2.593,3.651C271.562,225.766,270.505,227.063,268.969,227.063z"/>
			<polygon points="275.297,227.818 276.203,227.818 276.203,219.006 273.22,219.006 273.22,219.812 275.297,219.812 			"/>
			<polygon points="280.746,227.818 280.746,219.006 277.763,219.006 277.763,219.812 279.84,219.812 279.84,227.818 			"/>
			<path d="M286.358,227.894c2.039,0,3.524-1.675,3.524-4.481c0-2.808-1.485-4.482-3.524-4.482c-2.039,0-3.512,1.675-3.512,4.482
				C282.846,226.219,284.319,227.894,286.358,227.894z M286.358,219.761c1.536,0,2.593,1.297,2.593,3.651
				c0,2.354-1.058,3.65-2.593,3.65c-1.536,0-2.593-1.297-2.593-3.65C283.765,221.058,284.822,219.761,286.358,219.761z"/>
			<polygon points="290.609,219.812 292.686,219.812 292.686,227.818 293.593,227.818 293.593,219.006 290.609,219.006 			"/>
			<path d="M299.205,227.894c2.039,0,3.524-1.675,3.524-4.481c0-2.808-1.485-4.482-3.524-4.482c-2.04,0-3.512,1.675-3.512,4.482
				C295.693,226.219,297.165,227.894,299.205,227.894z M299.205,219.761c1.536,0,2.593,1.297,2.593,3.651
				c0,2.354-1.058,3.65-2.593,3.65c-1.536,0-2.593-1.297-2.593-3.65C296.612,221.058,297.669,219.761,299.205,219.761z"/>
			<polygon points="305.533,227.818 306.439,227.818 306.439,219.006 303.456,219.006 303.456,219.812 305.533,219.812 			"/>
			<path d="M308.54,223.413c0,2.807,1.473,4.481,3.512,4.481c2.039,0,3.524-1.675,3.524-4.481c0-0.195-0.024-0.37-0.038-0.554
				c-0.402-0.49-0.822-0.966-1.239-1.443c0.217,0.544,0.346,1.204,0.346,1.996c0,2.354-1.058,3.65-2.593,3.65
				c-1.536,0-2.593-1.297-2.593-3.65c0-2.355,1.057-3.651,2.593-3.651c0.334,0,0.64,0.073,0.923,0.193
				c-0.321-0.342-0.642-0.684-0.971-1.019C309.99,218.962,308.54,220.628,308.54,223.413z"/>
			<path d="M319.177,227.818c-0.261-0.397-0.527-0.791-0.797-1.182v1.182H319.177z"/>
			<path d="M233.083,215.266c-0.175,0.147-0.345,0.299-0.518,0.449h0.518V215.266z"/>
			<path d="M238.696,215.79c2.039,0,3.524-1.674,3.524-4.481c0-0.824-0.141-1.537-0.374-2.153c-0.266,0.151-0.532,0.302-0.795,0.457
				c0.149,0.484,0.237,1.045,0.237,1.696c0,2.354-1.058,3.65-2.593,3.65c-1.182,0-2.074-0.774-2.426-2.199
				c-0.258,0.188-0.516,0.375-0.77,0.567C236.034,214.894,237.21,215.79,238.696,215.79z"/>
			<path d="M245.024,215.714h0.906v-8.677c-0.464,0.217-0.922,0.442-1.378,0.671h0.472V215.714z"/>
			<polygon points="249.566,215.714 250.472,215.714 250.472,206.902 247.489,206.902 247.489,207.708 249.566,207.708 			"/>
			<path d="M256.085,215.79c2.039,0,3.524-1.674,3.524-4.481c0-2.808-1.485-4.482-3.524-4.482c-2.04,0-3.512,1.674-3.512,4.482
				C252.573,214.116,254.045,215.79,256.085,215.79z M256.085,207.658c1.536,0,2.593,1.296,2.593,3.651
				c0,2.354-1.058,3.65-2.593,3.65c-1.536,0-2.593-1.296-2.593-3.65C253.492,208.954,254.549,207.658,256.085,207.658z"/>
			<polygon points="262.412,215.714 263.319,215.714 263.319,206.902 260.335,206.902 260.335,207.708 262.412,207.708 			"/>
			<path d="M268.931,215.79c2.039,0,3.524-1.674,3.524-4.481c0-2.808-1.485-4.482-3.524-4.482c-2.04,0-3.512,1.674-3.512,4.482
				C265.419,214.116,266.892,215.79,268.931,215.79z M268.931,207.658c1.536,0,2.593,1.296,2.593,3.651
				c0,2.354-1.058,3.65-2.593,3.65c-1.536,0-2.593-1.296-2.593-3.65C266.338,208.954,267.395,207.658,268.931,207.658z"/>
			<path d="M277.261,215.79c2.039,0,3.525-1.674,3.525-4.481c0-2.808-1.485-4.482-3.525-4.482c-2.039,0-3.512,1.674-3.512,4.482
				C273.749,214.116,275.221,215.79,277.261,215.79z M277.261,207.658c1.536,0,2.593,1.296,2.593,3.651
				c0,2.354-1.058,3.65-2.593,3.65c-1.536,0-2.593-1.296-2.593-3.65C274.668,208.954,275.725,207.658,277.261,207.658z"/>
			<path d="M285.591,215.79c2.039,0,3.525-1.674,3.525-4.481c0-2.808-1.485-4.482-3.525-4.482c-2.04,0-3.512,1.674-3.512,4.482
				C282.078,214.116,283.551,215.79,285.591,215.79z M285.591,207.658c1.536,0,2.593,1.296,2.593,3.651
				c0,2.354-1.058,3.65-2.593,3.65c-1.536,0-2.593-1.296-2.593-3.65C282.997,208.954,284.055,207.658,285.591,207.658z"/>
			<polygon points="291.919,215.714 292.825,215.714 292.825,206.902 289.842,206.902 289.842,207.708 291.919,207.708 			"/>
			<path d="M294.384,207.708h2.077v8.006h0.906v-7.598c-0.814-0.424-1.638-0.829-2.474-1.214h-0.509V207.708z"/>
			<path d="M302.98,215.79c1.373,0,2.482-0.774,3.068-2.127c-0.248-0.191-0.49-0.391-0.741-0.579
				c-0.402,1.214-1.241,1.875-2.327,1.875c-1.536,0-2.593-1.296-2.593-3.65c0-0.531,0.061-1,0.161-1.42
				c-0.269-0.162-0.545-0.312-0.816-0.469c-0.171,0.553-0.264,1.186-0.264,1.89C299.468,214.116,300.94,215.79,302.98,215.79z"/>
			<path d="M220.211,239.921v-8.812h-0.276c-0.211,0.373-0.427,0.743-0.63,1.122v7.69H220.211z"/>
			<path d="M225.824,239.997c2.039,0,3.524-1.674,3.524-4.481c0-2.808-1.485-4.482-3.524-4.482c-2.04,0-3.512,1.674-3.512,4.482
				C222.312,238.323,223.785,239.997,225.824,239.997z M225.824,231.865c1.536,0,2.593,1.296,2.593,3.651
				c0,2.354-1.058,3.65-2.593,3.65c-1.536,0-2.593-1.296-2.593-3.65C223.231,233.161,224.288,231.865,225.824,231.865z"/>
			<polygon points="232.152,239.921 233.058,239.921 233.058,231.109 230.074,231.109 230.074,231.915 232.152,231.915 			"/>
			<polygon points="236.694,239.921 237.6,239.921 237.6,231.109 234.617,231.109 234.617,231.915 236.694,231.915 			"/>
			<polygon points="241.237,239.921 242.143,239.921 242.143,231.109 239.16,231.109 239.16,231.915 241.237,231.915 			"/>
			<polygon points="245.779,239.921 246.685,239.921 246.685,231.109 243.702,231.109 243.702,231.915 245.779,231.915 			"/>
			<path d="M252.298,231.034c-2.04,0-3.512,1.674-3.512,4.482c0,2.807,1.473,4.481,3.512,4.481c2.039,0,3.524-1.674,3.524-4.481
				C255.822,232.708,254.337,231.034,252.298,231.034z M252.298,239.166c-1.536,0-2.593-1.296-2.593-3.65
				c0-2.355,1.057-3.651,2.593-3.651c1.536,0,2.593,1.296,2.593,3.651C254.891,237.87,253.833,239.166,252.298,239.166z"/>
			<path d="M260.627,231.034c-2.04,0-3.512,1.674-3.512,4.482c0,2.807,1.473,4.481,3.512,4.481c2.039,0,3.524-1.674,3.524-4.481
				C264.152,232.708,262.666,231.034,260.627,231.034z M260.627,239.166c-1.536,0-2.593-1.296-2.593-3.65
				c0-2.355,1.057-3.651,2.593-3.651c1.536,0,2.593,1.296,2.593,3.651C263.22,237.87,262.163,239.166,260.627,239.166z"/>
			<path d="M268.957,231.034c-2.039,0-3.512,1.674-3.512,4.482c0,2.807,1.473,4.481,3.512,4.481c2.039,0,3.525-1.674,3.525-4.481
				C272.481,232.708,270.996,231.034,268.957,231.034z M268.957,239.166c-1.536,0-2.593-1.296-2.593-3.65
				c0-2.355,1.057-3.651,2.593-3.651c1.536,0,2.593,1.296,2.593,3.651C271.55,237.87,270.492,239.166,268.957,239.166z"/>
			<polygon points="275.285,239.921 276.191,239.921 276.191,231.109 273.208,231.109 273.208,231.915 275.285,231.915 			"/>
			<polygon points="277.75,231.915 279.827,231.915 279.827,239.921 280.733,239.921 280.733,231.109 277.75,231.109 			"/>
			<path d="M286.346,239.997c2.039,0,3.524-1.674,3.524-4.481c0-2.808-1.485-4.482-3.524-4.482c-2.04,0-3.512,1.674-3.512,4.482
				C282.834,238.323,284.306,239.997,286.346,239.997z M286.346,231.865c1.536,0,2.593,1.296,2.593,3.651
				c0,2.354-1.058,3.65-2.593,3.65c-1.536,0-2.593-1.296-2.593-3.65C283.753,233.161,284.81,231.865,286.346,231.865z"/>
			<polygon points="293.58,239.921 293.58,231.109 290.596,231.109 290.596,231.915 292.674,231.915 292.674,239.921 			"/>
			<path d="M299.193,239.997c2.039,0,3.524-1.674,3.524-4.481c0-2.808-1.485-4.482-3.524-4.482c-2.04,0-3.512,1.674-3.512,4.482
				C295.681,238.323,297.153,239.997,299.193,239.997z M299.193,231.865c1.536,0,2.593,1.296,2.593,3.651
				c0,2.354-1.058,3.65-2.593,3.65c-1.536,0-2.593-1.296-2.593-3.65C296.599,233.161,297.657,231.865,299.193,231.865z"/>
			<polygon points="305.52,239.921 306.427,239.921 306.427,231.109 303.443,231.109 303.443,231.915 305.52,231.915 			"/>
			<path d="M312.039,239.997c2.039,0,3.524-1.674,3.524-4.481c0-2.808-1.485-4.482-3.524-4.482c-2.04,0-3.512,1.674-3.512,4.482
				C308.527,238.323,310,239.997,312.039,239.997z M312.039,231.865c1.536,0,2.593,1.296,2.593,3.651c0,2.354-1.058,3.65-2.593,3.65
				c-1.536,0-2.593-1.296-2.593-3.65C309.446,233.161,310.503,231.865,312.039,231.865z"/>
			<polygon points="318.367,239.921 319.274,239.921 319.274,231.109 316.29,231.109 316.29,231.915 318.367,231.915 			"/>
			<path d="M324.886,239.997c0.132,0,0.254-0.026,0.38-0.04c-0.097-0.268-0.201-0.533-0.302-0.8
				c-0.027,0.001-0.051,0.009-0.078,0.009c-1.536,0-2.593-1.296-2.593-3.65c0-0.704,0.104-1.301,0.278-1.81
				c-0.169-0.338-0.341-0.674-0.516-1.007c-0.427,0.731-0.681,1.674-0.681,2.817C321.374,238.323,322.846,239.997,324.886,239.997z"
				/>
			<path d="M217.507,255.242c-2.04,0-3.513,1.674-3.513,4.482c0,2.807,1.473,4.481,3.513,4.481c2.039,0,3.524-1.675,3.524-4.481
				C221.031,256.916,219.546,255.242,217.507,255.242z M217.507,263.375c-1.536,0-2.594-1.297-2.594-3.65
				c0-2.355,1.058-3.651,2.594-3.651c1.535,0,2.593,1.297,2.593,3.651C220.099,262.078,219.042,263.375,217.507,263.375z"/>
			<path d="M225.836,255.242c-2.039,0-3.512,1.674-3.512,4.482c0,2.807,1.473,4.481,3.512,4.481c2.039,0,3.524-1.675,3.524-4.481
				C229.36,256.916,227.875,255.242,225.836,255.242z M225.836,263.375c-1.536,0-2.593-1.297-2.593-3.65
				c0-2.355,1.057-3.651,2.593-3.651c1.536,0,2.594,1.297,2.594,3.651C228.43,262.078,227.372,263.375,225.836,263.375z"/>
			<polygon points="233.07,264.129 233.07,255.318 230.087,255.318 230.087,256.123 232.164,256.123 232.164,264.129 			"/>
			<polygon points="237.613,264.129 237.613,255.318 234.63,255.318 234.63,256.123 236.707,256.123 236.707,264.129 			"/>
			<polygon points="242.155,264.129 242.155,255.318 239.172,255.318 239.172,256.123 241.249,256.123 241.249,264.129 			"/>
			<polygon points="246.697,264.129 246.697,255.318 243.714,255.318 243.714,256.123 245.791,256.123 245.791,264.129 			"/>
			<path d="M248.798,259.724c0,2.807,1.473,4.481,3.512,4.481c2.039,0,3.524-1.675,3.524-4.481c0-2.808-1.485-4.482-3.524-4.482
				C250.27,255.242,248.798,256.916,248.798,259.724z M252.309,256.073c1.536,0,2.594,1.297,2.594,3.651
				c0,2.353-1.058,3.65-2.594,3.65s-2.593-1.297-2.593-3.65C249.717,257.37,250.773,256.073,252.309,256.073z"/>
			<path d="M260.639,255.242c-2.04,0-3.513,1.674-3.513,4.482c0,2.807,1.473,4.481,3.513,4.481c2.039,0,3.524-1.675,3.524-4.481
				C264.164,256.916,262.678,255.242,260.639,255.242z M260.639,263.375c-1.536,0-2.594-1.297-2.594-3.65
				c0-2.355,1.058-3.651,2.594-3.651c1.535,0,2.593,1.297,2.593,3.651C263.232,262.078,262.175,263.375,260.639,263.375z"/>
			<path d="M268.969,264.206c2.039,0,3.524-1.675,3.524-4.481c0-2.808-1.485-4.482-3.524-4.482c-2.039,0-3.512,1.674-3.512,4.482
				C265.457,262.531,266.93,264.206,268.969,264.206z M268.969,256.073c1.536,0,2.594,1.297,2.594,3.651
				c0,2.353-1.058,3.65-2.594,3.65c-1.536,0-2.593-1.297-2.593-3.65C266.376,257.37,267.432,256.073,268.969,256.073z"/>
			<polygon points="276.203,264.129 276.203,255.318 273.22,255.318 273.22,256.123 275.297,256.123 275.297,264.129 			"/>
			<polygon points="280.746,255.318 277.763,255.318 277.763,256.123 279.84,256.123 279.84,264.129 280.746,264.129 			"/>
			<path d="M286.358,255.242c-2.04,0-3.513,1.674-3.513,4.482c0,2.807,1.473,4.481,3.513,4.481c2.039,0,3.524-1.675,3.524-4.481
				C289.883,256.916,288.397,255.242,286.358,255.242z M286.358,263.375c-1.536,0-2.594-1.297-2.594-3.65
				c0-2.355,1.058-3.651,2.594-3.651c1.535,0,2.593,1.297,2.593,3.651C288.951,262.078,287.893,263.375,286.358,263.375z"/>
			<polygon points="290.609,256.123 292.686,256.123 292.686,264.129 293.593,264.129 293.593,255.318 290.609,255.318 			"/>
			<path d="M299.205,264.206c2.039,0,3.524-1.675,3.524-4.481c0-2.808-1.485-4.482-3.524-4.482c-2.04,0-3.513,1.674-3.513,4.482
				C295.692,262.531,297.165,264.206,299.205,264.206z M299.205,256.073c1.535,0,2.593,1.297,2.593,3.651
				c0,2.353-1.058,3.65-2.593,3.65c-1.536,0-2.594-1.297-2.594-3.65C296.611,257.37,297.669,256.073,299.205,256.073z"/>
			<polygon points="306.439,264.129 306.439,255.318 303.456,255.318 303.456,256.123 305.533,256.123 305.533,264.129 			"/>
			<path d="M312.052,264.206c2.039,0,3.524-1.675,3.524-4.481c0-2.808-1.485-4.482-3.524-4.482c-2.039,0-3.512,1.674-3.512,4.482
				C308.54,262.531,310.013,264.206,312.052,264.206z M312.052,256.073c1.536,0,2.594,1.297,2.594,3.651
				c0,2.353-1.058,3.65-2.594,3.65c-1.536,0-2.593-1.297-2.593-3.65C309.459,257.37,310.515,256.073,312.052,256.073z"/>
			<polygon points="319.286,264.129 319.286,255.318 316.303,255.318 316.303,256.123 318.38,256.123 318.38,264.129 			"/>
			<path d="M321.387,259.724c0,2.807,1.473,4.481,3.512,4.481c2.039,0,3.524-1.675,3.524-4.481c0-2.808-1.485-4.482-3.524-4.482
				C322.859,255.242,321.387,256.916,321.387,259.724z M324.898,256.073c1.536,0,2.594,1.297,2.594,3.651
				c0,2.353-1.058,3.65-2.594,3.65c-1.536,0-2.593-1.297-2.593-3.65C322.306,257.37,323.362,256.073,324.898,256.073z"/>
			<path d="M216.526,247.62c0-1.948-0.725-3.333-1.844-4.009c-0.082,0.284-0.165,0.568-0.243,0.854
				c0.717,0.577,1.156,1.645,1.156,3.155c0,2.343-1.049,3.636-2.574,3.648c-0.04,0.273-0.069,0.55-0.105,0.824
				c0.029,0.001,0.055,0.009,0.085,0.009C215.041,252.102,216.526,250.427,216.526,247.62z"/>
			<polygon points="219.33,252.026 220.236,252.026 220.236,243.214 217.253,243.214 217.253,244.02 219.33,244.02 			"/>
			<path d="M225.848,243.138c-2.039,0-3.512,1.674-3.512,4.482c0,2.807,1.473,4.482,3.512,4.482c2.039,0,3.524-1.674,3.524-4.482
				C229.373,244.813,227.887,243.138,225.848,243.138z M225.848,251.271c-1.536,0-2.593-1.296-2.593-3.65
				c0-2.354,1.057-3.651,2.593-3.651c1.536,0,2.594,1.296,2.594,3.651C228.442,249.974,227.385,251.271,225.848,251.271z"/>
			<polygon points="230.099,244.02 232.177,244.02 232.177,252.026 233.083,252.026 233.083,243.214 230.099,243.214 			"/>
			<path d="M235.183,247.62c0,2.807,1.473,4.482,3.512,4.482c2.039,0,3.524-1.674,3.524-4.482c0-2.808-1.485-4.482-3.524-4.482
				C236.656,243.138,235.183,244.813,235.183,247.62z M238.695,243.969c1.536,0,2.594,1.296,2.594,3.651
				c0,2.354-1.058,3.65-2.594,3.65c-1.536,0-2.593-1.296-2.593-3.65C236.102,245.266,237.159,243.969,238.695,243.969z"/>
			<polygon points="245.023,252.026 245.93,252.026 245.93,243.214 242.946,243.214 242.946,244.02 245.023,244.02 			"/>
			<polygon points="249.565,252.026 250.471,252.026 250.471,243.214 247.488,243.214 247.488,244.02 249.565,244.02 			"/>
			<path d="M252.572,247.62c0,2.807,1.473,4.482,3.513,4.482c2.039,0,3.524-1.674,3.524-4.482c0-2.808-1.485-4.482-3.524-4.482
				C254.045,243.138,252.572,244.813,252.572,247.62z M258.678,247.62c0,2.354-1.058,3.65-2.593,3.65
				c-1.536,0-2.594-1.296-2.594-3.65c0-2.354,1.058-3.651,2.594-3.651C257.62,243.969,258.678,245.266,258.678,247.62z"/>
			<polygon points="263.318,252.026 263.318,243.214 260.335,243.214 260.335,244.02 262.412,244.02 262.412,252.026 			"/>
			<path d="M268.931,252.102c2.039,0,3.524-1.674,3.524-4.482c0-2.808-1.485-4.482-3.524-4.482c-2.04,0-3.513,1.674-3.513,4.482
				C265.419,250.427,266.891,252.102,268.931,252.102z M268.931,243.969c1.535,0,2.593,1.296,2.593,3.651
				c0,2.354-1.058,3.65-2.593,3.65c-1.536,0-2.594-1.296-2.594-3.65C266.338,245.266,267.395,243.969,268.931,243.969z"/>
			<path d="M273.749,247.62c0,2.807,1.473,4.482,3.512,4.482c2.039,0,3.524-1.674,3.524-4.482c0-2.808-1.485-4.482-3.524-4.482
				C275.221,243.138,273.749,244.813,273.749,247.62z M279.854,247.62c0,2.354-1.058,3.65-2.594,3.65
				c-1.536,0-2.593-1.296-2.593-3.65c0-2.354,1.057-3.651,2.593-3.651C278.797,243.969,279.854,245.266,279.854,247.62z"/>
			<path d="M285.591,252.102c2.039,0,3.525-1.674,3.525-4.482c0-2.808-1.485-4.482-3.525-4.482c-2.04,0-3.513,1.674-3.513,4.482
				C282.078,250.427,283.551,252.102,285.591,252.102z M285.591,243.969c1.535,0,2.593,1.296,2.593,3.651
				c0,2.354-1.058,3.65-2.593,3.65c-1.536,0-2.594-1.296-2.594-3.65C282.997,245.266,284.055,243.969,285.591,243.969z"/>
			<polygon points="291.919,252.026 292.825,252.026 292.825,243.214 289.842,243.214 289.842,244.02 291.919,244.02 			"/>
			<polygon points="296.461,252.026 297.367,252.026 297.367,243.214 294.384,243.214 294.384,244.02 296.461,244.02 			"/>
			<path d="M299.468,247.62c0,2.807,1.473,4.482,3.512,4.482c2.039,0,3.524-1.674,3.524-4.482c0-2.808-1.485-4.482-3.524-4.482
				C300.94,243.138,299.468,244.813,299.468,247.62z M302.979,243.969c1.536,0,2.594,1.296,2.594,3.651
				c0,2.354-1.058,3.65-2.594,3.65s-2.593-1.296-2.593-3.65C300.387,245.266,301.443,243.969,302.979,243.969z"/>
			<polygon points="309.307,252.026 310.214,252.026 310.214,243.214 307.23,243.214 307.23,244.02 309.307,244.02 			"/>
			<path d="M312.314,247.62c0,2.807,1.473,4.482,3.512,4.482c2.039,0,3.524-1.674,3.524-4.482c0-2.808-1.485-4.482-3.524-4.482
				C313.787,243.138,312.314,244.813,312.314,247.62z M315.826,243.969c1.536,0,2.594,1.296,2.594,3.651
				c0,2.354-1.058,3.65-2.594,3.65s-2.593-1.296-2.593-3.65C313.233,245.266,314.29,243.969,315.826,243.969z"/>
			<polygon points="322.154,252.026 323.06,252.026 323.06,243.214 320.077,243.214 320.077,244.02 322.154,244.02 			"/>
			<path d="M325.161,247.62c0,2.581,1.252,4.187,3.037,4.432c-0.037-0.284-0.067-0.57-0.108-0.852
				c-1.213-0.294-2.01-1.537-2.01-3.579c0-1.182,0.267-2.096,0.726-2.715c-0.085-0.322-0.182-0.639-0.272-0.959
				C325.687,244.702,325.161,245.955,325.161,247.62z"/>
			<path d="M216.502,271.827c0-2.808-1.485-4.482-3.524-4.482c-0.021,0-0.04,0.006-0.061,0.006c0.036,0.276,0.065,0.555,0.105,0.83
				c1.51,0.026,2.548,1.315,2.548,3.646c0,1.496-0.43,2.56-1.135,3.141c0.078,0.286,0.161,0.57,0.243,0.855
				C215.786,275.142,216.502,273.763,216.502,271.827z"/>
			<polygon points="217.228,268.226 219.305,268.226 219.305,276.233 220.211,276.233 220.211,267.421 217.228,267.421 			"/>
			<path d="M225.824,276.308c2.039,0,3.524-1.674,3.524-4.481c0-2.808-1.485-4.482-3.524-4.482c-2.04,0-3.512,1.674-3.512,4.482
				C222.312,274.634,223.785,276.308,225.824,276.308z M225.824,268.176c1.536,0,2.593,1.296,2.593,3.65
				c0,2.354-1.058,3.65-2.593,3.65c-1.536,0-2.593-1.296-2.593-3.65C223.231,269.472,224.288,268.176,225.824,268.176z"/>
			<polygon points="232.152,276.233 233.058,276.233 233.058,267.421 230.074,267.421 230.074,268.226 232.152,268.226 			"/>
			<polygon points="236.694,276.233 237.6,276.233 237.6,267.421 234.617,267.421 234.617,268.226 236.694,268.226 			"/>
			<polygon points="239.16,268.226 241.237,268.226 241.237,276.233 242.143,276.233 242.143,267.421 239.16,267.421 			"/>
			<polygon points="243.702,268.226 245.779,268.226 245.779,276.233 246.685,276.233 246.685,267.421 243.702,267.421 			"/>
			<path d="M252.298,276.308c2.039,0,3.524-1.674,3.524-4.481c0-2.808-1.485-4.482-3.524-4.482c-2.04,0-3.512,1.674-3.512,4.482
				C248.786,274.634,250.258,276.308,252.298,276.308z M252.298,268.176c1.536,0,2.593,1.296,2.593,3.65
				c0,2.354-1.058,3.65-2.593,3.65c-1.536,0-2.593-1.296-2.593-3.65C249.704,269.472,250.762,268.176,252.298,268.176z"/>
			<path d="M260.627,267.345c-2.04,0-3.512,1.674-3.512,4.482c0,2.808,1.473,4.481,3.512,4.481c2.039,0,3.524-1.674,3.524-4.481
				C264.152,269.019,262.666,267.345,260.627,267.345z M260.627,275.477c-1.536,0-2.593-1.296-2.593-3.65
				c0-2.355,1.057-3.65,2.593-3.65c1.536,0,2.593,1.296,2.593,3.65C263.22,274.181,262.163,275.477,260.627,275.477z"/>
			<path d="M268.957,276.308c2.039,0,3.525-1.674,3.525-4.481c0-2.808-1.485-4.482-3.525-4.482c-2.039,0-3.512,1.674-3.512,4.482
				C265.445,274.634,266.917,276.308,268.957,276.308z M268.957,268.176c1.536,0,2.593,1.296,2.593,3.65
				c0,2.354-1.058,3.65-2.593,3.65c-1.536,0-2.593-1.296-2.593-3.65C266.364,269.472,267.421,268.176,268.957,268.176z"/>
			<polygon points="275.285,276.233 276.191,276.233 276.191,267.421 273.208,267.421 273.208,268.226 275.285,268.226 			"/>
			<polygon points="280.733,276.233 280.733,267.421 277.75,267.421 277.75,268.226 279.827,268.226 279.827,276.233 			"/>
			<path d="M286.346,276.308c2.039,0,3.524-1.674,3.524-4.481c0-2.808-1.485-4.482-3.524-4.482c-2.04,0-3.512,1.674-3.512,4.482
				C282.834,274.634,284.306,276.308,286.346,276.308z M286.346,268.176c1.536,0,2.593,1.296,2.593,3.65
				c0,2.354-1.058,3.65-2.593,3.65c-1.536,0-2.593-1.296-2.593-3.65C283.753,269.472,284.81,268.176,286.346,268.176z"/>
			<polygon points="293.58,267.421 290.596,267.421 290.596,268.226 292.674,268.226 292.674,276.233 293.58,276.233 			"/>
			<path d="M299.193,276.308c2.039,0,3.524-1.674,3.524-4.481c0-2.808-1.485-4.482-3.524-4.482c-2.04,0-3.512,1.674-3.512,4.482
				C295.681,274.634,297.153,276.308,299.193,276.308z M299.193,268.176c1.536,0,2.593,1.296,2.593,3.65
				c0,2.354-1.058,3.65-2.593,3.65c-1.536,0-2.593-1.296-2.593-3.65C296.599,269.472,297.657,268.176,299.193,268.176z"/>
			<polygon points="303.443,268.226 305.52,268.226 305.52,276.233 306.427,276.233 306.427,267.421 303.443,267.421 			"/>
			<path d="M315.564,271.827c0-2.808-1.485-4.482-3.524-4.482c-2.04,0-3.512,1.674-3.512,4.482c0,2.808,1.473,4.481,3.512,4.481
				C314.078,276.308,315.564,274.634,315.564,271.827z M312.039,275.477c-1.536,0-2.593-1.296-2.593-3.65
				c0-2.355,1.057-3.65,2.593-3.65c1.536,0,2.593,1.296,2.593,3.65C314.633,274.181,313.575,275.477,312.039,275.477z"/>
			<polygon points="316.29,268.226 318.367,268.226 318.367,276.233 319.274,276.233 319.274,267.421 316.29,267.421 			"/>
			<path d="M324.886,267.345c-2.039,0-3.512,1.674-3.512,4.482c0,2.808,1.473,4.481,3.512,4.481c0.558,0,1.069-0.136,1.525-0.376
				c0.15-0.519,0.307-1.035,0.443-1.559c-0.459,0.716-1.14,1.105-1.968,1.105c-1.536,0-2.593-1.296-2.593-3.65
				c0-2.355,1.057-3.65,2.593-3.65c1.51,0,2.553,1.26,2.587,3.541c0.163-0.78,0.303-1.567,0.435-2.358
				C327.31,268.075,326.222,267.345,324.886,267.345z"/>
			<path d="M229.361,296.034c0-2.808-1.485-4.482-3.525-4.482c-1.202,0-2.196,0.594-2.819,1.646c0.192,0.273,0.383,0.546,0.58,0.816
				c0.431-1.057,1.227-1.63,2.239-1.63c1.536,0,2.593,1.296,2.593,3.65c0,1.284-0.323,2.241-0.858,2.856
				c0.195,0.214,0.401,0.417,0.599,0.628C228.906,298.749,229.361,297.569,229.361,296.034z"/>
			<polygon points="232.164,300.44 233.071,300.44 233.071,291.628 230.087,291.628 230.087,292.433 232.164,292.433 			"/>
			<polygon points="234.63,292.433 236.707,292.433 236.707,300.44 237.613,300.44 237.613,291.628 234.63,291.628 			"/>
			<polygon points="239.172,292.433 241.249,292.433 241.249,300.44 242.155,300.44 242.155,291.628 239.172,291.628 			"/>
			<polygon points="243.714,292.433 245.791,292.433 245.791,300.44 246.698,300.44 246.698,291.628 243.714,291.628 			"/>
			<path d="M252.31,291.552c-2.04,0-3.512,1.674-3.512,4.482c0,2.808,1.473,4.481,3.512,4.481c2.039,0,3.524-1.674,3.524-4.481
				C255.834,293.226,254.349,291.552,252.31,291.552z M252.31,299.684c-1.536,0-2.593-1.296-2.593-3.65
				c0-2.355,1.057-3.65,2.593-3.65c1.536,0,2.593,1.296,2.593,3.65C254.903,298.388,253.846,299.684,252.31,299.684z"/>
			<path d="M260.639,291.552c-2.04,0-3.512,1.674-3.512,4.482c0,2.808,1.473,4.481,3.512,4.481c2.039,0,3.524-1.674,3.524-4.481
				C264.164,293.226,262.678,291.552,260.639,291.552z M260.639,299.684c-1.536,0-2.593-1.296-2.593-3.65
				c0-2.355,1.057-3.65,2.593-3.65c1.536,0,2.593,1.296,2.593,3.65C263.233,298.388,262.175,299.684,260.639,299.684z"/>
			<path d="M268.969,291.552c-2.04,0-3.512,1.674-3.512,4.482c0,2.808,1.473,4.481,3.512,4.481c2.039,0,3.524-1.674,3.524-4.481
				C272.493,293.226,271.008,291.552,268.969,291.552z M268.969,299.684c-1.536,0-2.593-1.296-2.593-3.65
				c0-2.355,1.057-3.65,2.593-3.65c1.536,0,2.593,1.296,2.593,3.65C271.562,298.388,270.505,299.684,268.969,299.684z"/>
			<polygon points="273.22,292.433 275.297,292.433 275.297,300.44 276.203,300.44 276.203,291.628 273.22,291.628 			"/>
			<polygon points="277.763,292.433 279.84,292.433 279.84,300.44 280.746,300.44 280.746,291.628 277.763,291.628 			"/>
			<path d="M286.358,291.552c-2.039,0-3.512,1.674-3.512,4.482c0,2.808,1.473,4.481,3.512,4.481c2.039,0,3.524-1.674,3.524-4.481
				C289.883,293.226,288.397,291.552,286.358,291.552z M286.358,299.684c-1.536,0-2.593-1.296-2.593-3.65
				c0-2.355,1.057-3.65,2.593-3.65c1.536,0,2.593,1.296,2.593,3.65C288.952,298.388,287.894,299.684,286.358,299.684z"/>
			<polygon points="290.609,292.433 292.686,292.433 292.686,300.44 293.593,300.44 293.593,291.628 290.609,291.628 			"/>
			<path d="M299.205,291.552c-2.04,0-3.512,1.674-3.512,4.482c0,2.808,1.473,4.481,3.512,4.481c2.039,0,3.524-1.674,3.524-4.481
				C302.729,293.226,301.244,291.552,299.205,291.552z M299.205,299.684c-1.536,0-2.593-1.296-2.593-3.65
				c0-2.355,1.057-3.65,2.593-3.65c1.536,0,2.593,1.296,2.593,3.65C301.798,298.388,300.741,299.684,299.205,299.684z"/>
			<polygon points="303.456,292.433 305.533,292.433 305.533,300.44 306.439,300.44 306.439,291.628 303.456,291.628 			"/>
			<path d="M312.052,291.552c-2.04,0-3.512,1.674-3.512,4.482c0,2.785,1.451,4.45,3.465,4.476c0.329-0.335,0.651-0.677,0.972-1.019
				c-0.283,0.121-0.59,0.193-0.924,0.193c-1.536,0-2.593-1.296-2.593-3.65c0-2.355,1.057-3.65,2.593-3.65
				c1.536,0,2.593,1.296,2.593,3.65c0,0.792-0.128,1.453-0.346,1.996c0.418-0.477,0.837-0.952,1.239-1.443
				c0.014-0.184,0.038-0.359,0.038-0.554C315.577,293.226,314.091,291.552,312.052,291.552z"/>
			<path d="M316.303,292.433h2.077v0.377c0.271-0.391,0.536-0.785,0.798-1.182h-2.875V292.433z"/>
			<path d="M220.236,279.524h-2.983v0.806h2.077v6.934c0.195,0.362,0.403,0.715,0.605,1.073h0.301V279.524z"/>
			<path d="M225.849,279.449c-2.04,0-3.512,1.674-3.512,4.482c0,2.808,1.473,4.481,3.512,4.481c2.039,0,3.524-1.674,3.524-4.481
				C229.373,281.123,227.888,279.449,225.849,279.449z M225.849,287.581c-1.536,0-2.593-1.296-2.593-3.65s1.057-3.65,2.593-3.65
				c1.536,0,2.593,1.296,2.593,3.65S227.385,287.581,225.849,287.581z"/>
			<polygon points="230.099,280.33 232.177,280.33 232.177,288.336 233.083,288.336 233.083,279.524 230.099,279.524 			"/>
			<path d="M238.696,279.449c-2.04,0-3.512,1.674-3.512,4.482c0,2.808,1.473,4.481,3.512,4.481c2.039,0,3.524-1.674,3.524-4.481
				C242.22,281.123,240.735,279.449,238.696,279.449z M238.696,287.581c-1.536,0-2.593-1.296-2.593-3.65s1.057-3.65,2.593-3.65
				c1.536,0,2.593,1.296,2.593,3.65S240.231,287.581,238.696,287.581z"/>
			<polygon points="245.024,288.336 245.93,288.336 245.93,279.524 242.947,279.524 242.947,280.33 245.024,280.33 			"/>
			<polygon points="247.489,280.33 249.566,280.33 249.566,288.336 250.472,288.336 250.472,279.524 247.489,279.524 			"/>
			<path d="M259.609,283.93c0-2.808-1.485-4.482-3.524-4.482c-2.04,0-3.512,1.674-3.512,4.482c0,2.808,1.473,4.481,3.512,4.481
				C258.124,288.412,259.609,286.738,259.609,283.93z M256.085,287.581c-1.536,0-2.593-1.296-2.593-3.65s1.057-3.65,2.593-3.65
				c1.536,0,2.593,1.296,2.593,3.65S257.62,287.581,256.085,287.581z"/>
			<polygon points="263.319,288.336 263.319,279.524 260.335,279.524 260.335,280.33 262.412,280.33 262.412,288.336 			"/>
			<path d="M268.931,288.412c2.039,0,3.524-1.674,3.524-4.481c0-2.808-1.485-4.482-3.524-4.482c-2.04,0-3.512,1.674-3.512,4.482
				C265.419,286.738,266.892,288.412,268.931,288.412z M268.931,280.28c1.536,0,2.593,1.296,2.593,3.65s-1.058,3.65-2.593,3.65
				c-1.536,0-2.593-1.296-2.593-3.65S267.395,280.28,268.931,280.28z"/>
			<path d="M277.261,279.449c-2.039,0-3.512,1.674-3.512,4.482c0,2.808,1.473,4.481,3.512,4.481c2.039,0,3.525-1.674,3.525-4.481
				C280.785,281.123,279.3,279.449,277.261,279.449z M277.261,287.581c-1.536,0-2.593-1.296-2.593-3.65s1.057-3.65,2.593-3.65
				c1.536,0,2.593,1.296,2.593,3.65S278.797,287.581,277.261,287.581z"/>
			<path d="M285.591,288.412c2.039,0,3.525-1.674,3.525-4.481c0-2.808-1.485-4.482-3.525-4.482c-2.04,0-3.512,1.674-3.512,4.482
				C282.078,286.738,283.551,288.412,285.591,288.412z M285.591,280.28c1.536,0,2.593,1.296,2.593,3.65s-1.058,3.65-2.593,3.65
				c-1.536,0-2.593-1.296-2.593-3.65S284.055,280.28,285.591,280.28z"/>
			<polygon points="292.825,288.336 292.825,279.524 289.842,279.524 289.842,280.33 291.919,280.33 291.919,288.336 			"/>
			<polygon points="296.461,288.336 297.367,288.336 297.367,279.524 294.384,279.524 294.384,280.33 296.461,280.33 			"/>
			<path d="M302.98,279.449c-2.04,0-3.512,1.674-3.512,4.482c0,2.808,1.473,4.481,3.512,4.481c2.039,0,3.524-1.674,3.524-4.481
				C306.504,281.123,305.019,279.449,302.98,279.449z M302.98,287.581c-1.536,0-2.593-1.296-2.593-3.65s1.057-3.65,2.593-3.65
				c1.536,0,2.593,1.296,2.593,3.65S304.515,287.581,302.98,287.581z"/>
			<polygon points="309.307,288.336 310.214,288.336 310.214,279.524 307.23,279.524 307.23,280.33 309.307,280.33 			"/>
			<path d="M315.827,279.449c-2.04,0-3.512,1.674-3.512,4.482c0,2.808,1.473,4.481,3.512,4.481c2.039,0,3.524-1.674,3.524-4.481
				C319.351,281.123,317.866,279.449,315.827,279.449z M315.827,287.581c-1.536,0-2.593-1.296-2.593-3.65s1.057-3.65,2.593-3.65
				c1.536,0,2.593,1.296,2.593,3.65S317.362,287.581,315.827,287.581z"/>
			<path d="M320.078,279.524v0.806h2.077v6.224c0.309-0.593,0.617-1.185,0.906-1.79v-5.24H320.078z"/>
			<path d="M232.564,303.732c0.165,0.142,0.327,0.287,0.493,0.427v-0.427H232.564z"/>
			<path d="M234.617,303.732v0.806h2.077v2.451c0.301,0.216,0.601,0.434,0.906,0.644v-3.901H234.617z"/>
			<path d="M239.16,303.732v0.806h2.077v5.402c0.301,0.176,0.602,0.351,0.906,0.521v-6.729H239.16z"/>
			<path d="M246.685,303.732h-2.983v0.806h2.077v7.803c0.149,0.07,0.301,0.135,0.451,0.204h0.456V303.732z"/>
			<path d="M252.298,303.657c-2.04,0-3.512,1.674-3.512,4.482c0,2.808,1.473,4.481,3.512,4.481c2.039,0,3.524-1.674,3.524-4.481
				C255.822,305.331,254.337,303.657,252.298,303.657z M252.298,311.789c-1.536,0-2.593-1.296-2.593-3.65s1.057-3.65,2.593-3.65
				c1.536,0,2.593,1.296,2.593,3.65S253.833,311.789,252.298,311.789z"/>
			<path d="M260.627,303.657c-2.04,0-3.512,1.674-3.512,4.482c0,2.808,1.473,4.481,3.512,4.481c2.039,0,3.524-1.674,3.524-4.481
				C264.152,305.331,262.666,303.657,260.627,303.657z M260.627,311.789c-1.536,0-2.593-1.296-2.593-3.65s1.057-3.65,2.593-3.65
				c1.536,0,2.593,1.296,2.593,3.65S262.163,311.789,260.627,311.789z"/>
			<path d="M268.957,303.657c-2.039,0-3.512,1.674-3.512,4.482c0,2.808,1.473,4.481,3.512,4.481c2.039,0,3.525-1.674,3.525-4.481
				C272.481,305.331,270.996,303.657,268.957,303.657z M268.957,311.789c-1.536,0-2.593-1.296-2.593-3.65s1.057-3.65,2.593-3.65
				c1.536,0,2.593,1.296,2.593,3.65S270.492,311.789,268.957,311.789z"/>
			<polygon points="275.285,312.544 276.191,312.544 276.191,303.732 273.208,303.732 273.208,304.538 275.285,304.538 			"/>
			<polygon points="277.75,304.538 279.827,304.538 279.827,312.544 280.733,312.544 280.733,303.732 277.75,303.732 			"/>
			<path d="M286.346,303.657c-2.04,0-3.512,1.674-3.512,4.482c0,2.808,1.473,4.481,3.512,4.481c2.039,0,3.524-1.674,3.524-4.481
				C289.87,305.331,288.385,303.657,286.346,303.657z M286.346,311.789c-1.536,0-2.593-1.296-2.593-3.65s1.057-3.65,2.593-3.65
				c1.536,0,2.593,1.296,2.593,3.65S287.882,311.789,286.346,311.789z"/>
			<polygon points="290.596,304.538 292.674,304.538 292.674,312.544 293.58,312.544 293.58,303.732 290.596,303.732 			"/>
			<path d="M299.193,303.657c-2.04,0-3.512,1.674-3.512,4.482c0,1.519,0.441,2.691,1.16,3.461c0.267-0.135,0.534-0.269,0.798-0.409
				c-0.647-0.597-1.039-1.627-1.039-3.052c0-2.354,1.057-3.65,2.593-3.65c1.536,0,2.593,1.296,2.593,3.65
				c0,0.234-0.018,0.449-0.038,0.662c0.323-0.206,0.648-0.408,0.967-0.62c0-0.015,0.003-0.027,0.003-0.042
				C302.717,305.331,301.232,303.657,299.193,303.657z"/>
			<path d="M303.443,303.732v0.806h2.077v1.661c0.307-0.231,0.604-0.475,0.906-0.712v-1.754H303.443z"/>
			<path d="M255.316,315.848c0.957,0.259,1.923,0.496,2.899,0.707c-0.581-0.51-1.306-0.795-2.13-0.795
				C255.817,315.759,255.561,315.792,255.316,315.848z"/>
			<path d="M260.335,315.836v0.806h2.077v0.659c0.301,0.042,0.604,0.078,0.906,0.115v-1.58H260.335z"/>
			<path d="M268.931,315.759c-1.306,0-2.373,0.693-2.977,1.923c0.324,0.025,0.647,0.054,0.973,0.074
				c0.458-0.755,1.153-1.166,2.004-1.166c0.892,0,1.614,0.45,2.07,1.279c0.328-0.002,0.654-0.017,0.981-0.025
				C271.391,316.517,270.29,315.759,268.931,315.759z"/>
			<path d="M277.261,315.759c-1.329,0-2.407,0.721-3.004,1.992c0.351-0.022,0.701-0.052,1.05-0.08
				c0.459-0.702,1.135-1.081,1.954-1.081c0.647,0,1.202,0.243,1.635,0.686c0.336-0.048,0.672-0.099,1.007-0.153
				C279.272,316.25,278.35,315.759,277.261,315.759z"/>
			<path d="M283.682,316.376c0.77-0.178,1.534-0.368,2.292-0.576c-0.128-0.014-0.251-0.04-0.384-0.04
				C284.868,315.759,284.222,315.979,283.682,316.376z"/>
		</g>
		<g>
			<path style="fill:#FFFFFF;" d="M241.771,174.484v0.903h-5.271v-7.263h5.126v0.903h-4.088v2.231h3.642v0.882h-3.642v2.345H241.771
				z"/>
			<path style="fill:#FFFFFF;" d="M249.699,168.124v7.263h-0.851l-4.358-5.417v5.417h-1.038v-7.263h0.851l4.358,5.416v-5.416
				H249.699z"/>
			<path style="fill:#FFFFFF;" d="M251.287,171.756c0-2.148,1.639-3.715,3.85-3.715c1.121,0,2.096,0.384,2.76,1.131l-0.674,0.654
				c-0.561-0.591-1.245-0.861-2.044-0.861c-1.64,0-2.854,1.183-2.854,2.792c0,1.608,1.214,2.791,2.854,2.791
				c0.799,0,1.483-0.28,2.044-0.872l0.674,0.654c-0.664,0.747-1.639,1.141-2.77,1.141
				C252.926,175.47,251.287,173.903,251.287,171.756z"/>
			<path style="fill:#FFFFFF;" d="M264.236,175.387l-1.567-2.231c-0.145,0.011-0.301,0.021-0.456,0.021h-1.795v2.21h-1.038v-7.263
				h2.833c1.888,0,3.029,0.955,3.029,2.532c0,1.121-0.581,1.93-1.598,2.293l1.723,2.439H264.236z M264.206,170.656
				c0-1.038-0.695-1.629-2.023-1.629h-1.764v3.268h1.764C263.51,172.295,264.206,171.693,264.206,170.656z"/>
			<path style="fill:#FFFFFF;" d="M269.601,172.876v2.511h-1.027v-2.532l-2.885-4.732h1.11l2.324,3.829l2.335-3.829h1.027
				L269.601,172.876z"/>
			<path style="fill:#FFFFFF;" d="M279.272,170.656c0,1.577-1.142,2.532-3.03,2.532h-1.795v2.2h-1.038v-7.263h2.832
				C278.13,168.124,279.272,169.079,279.272,170.656z M278.234,170.656c0-1.038-0.695-1.629-2.023-1.629h-1.764v3.258h1.764
				C277.539,172.285,278.234,171.693,278.234,170.656z"/>
			<path style="fill:#FFFFFF;" d="M282.011,169.027h-2.49v-0.903h6.008v0.903h-2.49v6.36h-1.027V169.027z"/>
			<path style="fill:#FFFFFF;" d="M286.659,168.124h1.038v7.263h-1.038V168.124z"/>
			<path style="fill:#FFFFFF;" d="M289.285,171.756c0-2.128,1.64-3.715,3.87-3.715c2.21,0,3.85,1.577,3.85,3.715
				c0,2.137-1.64,3.714-3.85,3.714C290.924,175.47,289.285,173.883,289.285,171.756z M295.967,171.756
				c0-1.608-1.204-2.792-2.812-2.792c-1.629,0-2.832,1.183-2.832,2.792c0,1.608,1.204,2.791,2.832,2.791
				C294.763,174.547,295.967,173.364,295.967,171.756z"/>
			<path style="fill:#FFFFFF;" d="M304.839,168.124v7.263h-0.851l-4.358-5.417v5.417h-1.038v-7.263h0.851l4.358,5.416v-5.416
				H304.839z"/>
		</g>
		<g>
			<path style="fill:none;stroke:#FFFFFF;stroke-width:4;stroke-miterlimit:10;" d="M255.389,251.802V240.28
				c0-8.439,6.841-15.28,15.28-15.28h0c8.439,0,15.28,6.841,15.28,15.28v11.522"/>
			<path style="fill:#407BFF;" d="M295.427,250.681l-24.758-7.303l-24.758,7.303v14.487c0,12.059,7.494,22.847,18.793,27.057
				l5.964,2.222l5.964-2.222c11.3-4.21,18.793-14.999,18.793-27.057V250.681z"/>
			<path style="opacity:0.2;enable-background:new    ;" d="M265.753,289.413c-10.073-3.753-16.841-13.496-16.841-24.245v-12.245
				l21.758-6.418l21.757,6.418v12.245c0,10.749-6.768,20.492-16.841,24.245l-4.916,1.833L265.753,289.413z"/>
			<path style="fill:#263238;" d="M274.428,263.67c0-2.076-1.683-3.758-3.758-3.758c-2.075,0-3.758,1.683-3.758,3.758
				c0,1.477,0.86,2.742,2.099,3.356l-0.725,7.028h4.769l-0.725-7.028C273.568,266.412,274.428,265.147,274.428,263.67z"/>
		</g>
		<g>
			<path style="fill:#FFFFFF;" d="M341.263,172.125v-2.018h-1.777c-0.116-0.516-0.322-0.995-0.596-1.429l1.259-1.26l-1.426-1.427
				l-1.259,1.26c-0.434-0.274-0.913-0.48-1.429-0.596v-1.777h-2.018v1.777c-0.516,0.116-0.995,0.321-1.429,0.596l-1.259-1.259
				l-1.427,1.427l1.259,1.259c-0.274,0.433-0.48,0.913-0.595,1.429h-1.777v2.018h1.777c0.116,0.516,0.322,0.995,0.595,1.429
				l-1.259,1.259l1.427,1.427l1.259-1.259c0.433,0.274,0.913,0.479,1.429,0.596v1.777h2.018v-1.777
				c0.516-0.116,0.995-0.322,1.429-0.596l1.259,1.259l1.426-1.427l-1.259-1.259c0.274-0.433,0.48-0.913,0.596-1.429H341.263z
				 M335.026,172.981c-1.03,0-1.865-0.835-1.865-1.865c0-1.03,0.835-1.865,1.865-1.865c1.03,0,1.865,0.835,1.865,1.865
				C336.891,172.146,336.056,172.981,335.026,172.981z"/>
			<polygon style="fill:#FFFFFF;" points="207.662,165.614 200.918,172.022 203.001,172.022 203.001,176.619 212.324,176.619 
				212.324,172.022 214.407,172.022 			"/>
		</g>
		<g>
			<path style="opacity:0.3;fill:#407BFF;" d="M322.367,334.03H218.973c-3.024,0-5.476,2.452-5.476,5.476
				c0,3.024,2.452,5.476,5.476,5.476h103.394c3.024,0,5.476-2.451,5.476-5.476C327.842,336.482,325.391,334.03,322.367,334.03z"/>
			<path style="fill:#407BFF;" d="M291.193,334.998h-72.12c-2.49,0-4.508,2.018-4.508,4.508c0,2.49,2.018,4.508,4.508,4.508h72.12
				c2.49,0,4.508-2.018,4.508-4.508C295.701,337.016,293.683,334.998,291.193,334.998z"/>
		</g>
	</g>
</g>
<g id="Plant">
	<g>
		<path style="fill:#263238;" d="M388.184,393.772c0,0,5.266-24.885-4.324-38.366c-9.59-13.48,8.668-0.155,10.768,12.463
			c0,0,3.147-22.562-6.156-38.436c-9.303-15.874,8.103-2.84,9.581,13.516c0,0,2.85-20.129-1.424-31.44
			c-4.274-11.311,3.162-4.038,6.021,3.053c2.859,7.09-0.892,24.648-0.892,24.648s7.46-32.466,14.522-29.882
			c7.062,2.584-10.557,23.855-13.001,34.921c0,0,8.327-14.891,14.644-11.791c6.317,3.1-9.784,4.642-17.156,26.846l-2.59,10.411
			c0,0,7.662-14.696,12.672-10.06c5.01,4.636-14.855,12.638-19.471,34.912L388.184,393.772z"/>
		<path style="fill:#263238;" d="M389.216,395.205c0,0,1.107-31.375,16.61-44.663s-10.335-2.768-16.61,11.719
			c0,0,2.953-27.961,18.825-44.202c15.872-16.241-8.859-5.816-15.503,13.333c0,0,2.584-24.958,11.074-37.232
			c8.49-12.275-2.584-5.778-8.121,1.863c-5.537,7.641-6.275,29.788-6.275,29.788s0.738-41.108-8.49-40.117
			c-9.228,0.991,5.537,31.718,5.168,45.699c0,0-5.537-20.317-14.026-18.486c-8.49,1.831,10.335,8.475,12.55,37.266v13.241
			c0,0-4.798-19.885-12.181-15.825c-7.382,4.06,14.027,19.563,12.919,47.616H389.216z"/>
		<path style="opacity:0.2;fill:#FFFFFF;enable-background:new    ;" d="M389.216,395.205c0,0,1.107-31.375,16.61-44.663
			s-10.335-2.768-16.61,11.719c0,0,2.953-27.961,18.825-44.202c15.872-16.241-8.859-5.816-15.503,13.333
			c0,0,2.584-24.958,11.074-37.232c8.49-12.275-2.584-5.778-8.121,1.863c-5.537,7.641-6.275,29.788-6.275,29.788
			s0.738-41.108-8.49-40.117c-9.228,0.991,5.537,31.718,5.168,45.699c0,0-5.537-20.317-14.026-18.486
			c-8.49,1.831,10.335,8.475,12.55,37.266v13.241c0,0-4.798-19.885-12.181-15.825c-7.382,4.06,14.027,19.563,12.919,47.616H389.216z
			"/>
		<path style="fill:#407BFF;" d="M375.675,417.288h23.592c6.072,0,10.994-4.922,10.994-10.994v-4.923h-45.581v4.923
			C364.681,412.365,369.603,417.288,375.675,417.288z"/>
		<path style="fill:#407BFF;" d="M362.923,406.435h49.096c2.326,0,4.211-1.885,4.211-4.211v-5.831c0-2.326-1.885-4.211-4.211-4.211
			h-49.096c-2.326,0-4.211,1.885-4.211,4.211v5.831C358.712,404.55,360.597,406.435,362.923,406.435z"/>
		<path style="opacity:0.2;fill:#FFFFFF;enable-background:new    ;" d="M362.923,406.435h49.096c2.326,0,4.211-1.885,4.211-4.211
			v-5.831c0-2.326-1.885-4.211-4.211-4.211h-49.096c-2.326,0-4.211,1.885-4.211,4.211v5.831
			C358.712,404.55,360.597,406.435,362.923,406.435z"/>
	</g>
</g>
<g id="Bubble_speech">
	<g>
		<path style="fill:#407BFF;" d="M119.376,110.659H82.932c-1.797,0-3.254,1.457-3.254,3.254v35.61c0,1.797,1.457,3.254,3.254,3.254
			h19.88l11.507,8.394l-5.23-8.394h10.287c1.797,0,3.254-1.457,3.254-3.254v-35.61C122.63,112.115,121.173,110.659,119.376,110.659z
			"/>
		<g>
			<path style="fill:none;stroke:#FFFFFF;stroke-width:0.5;stroke-linecap:round;stroke-linejoin:round;stroke-miterlimit:10;" d="
				M93.281,141.923c0.827-6.861,5.467-11.834,7.875-10.419c2.544,1.493-4.073,5.789-4.713,12.728"/>
			<path style="fill:none;stroke:#FFFFFF;stroke-width:0.5;stroke-linecap:round;stroke-linejoin:round;stroke-miterlimit:10;" d="
				M92.241,140.658c0.957-6.585,5.836-13.175,10.081-10.465c4.463,2.845-4.068,7.22-4.593,14.554"/>
			<path style="fill:none;stroke:#FFFFFF;stroke-width:0.5;stroke-linecap:round;stroke-linejoin:round;stroke-miterlimit:10;" d="
				M94.306,142.869c0.572-4.536,3.521-9.345,4.919-9.332c1.461,0.013-3.332,4.422-3.795,10.133"/>
			<path style="fill:none;stroke:#FFFFFF;stroke-width:0.5;stroke-linecap:round;stroke-linejoin:round;stroke-miterlimit:10;" d="
				M91.211,138.843c1.441-7.652,8.26-13.446,12.401-10.299c5.399,4.104-3.782,9.888-4.146,16.624"/>
			<path style="fill:none;stroke:#FFFFFF;stroke-width:0.5;stroke-linecap:round;stroke-linejoin:round;stroke-miterlimit:10;" d="
				M102.098,145.251c-1.02-2.694,0.921-6.694,3.313-10.205c1.977-2.902,5.207-2.507,6.627-2.153"/>
			<path style="fill:none;stroke:#FFFFFF;stroke-width:0.5;stroke-linecap:round;stroke-linejoin:round;stroke-miterlimit:10;" d="
				M104.449,144.789c-1.888-2.7,0.062-7.178,3.053-9.592c1.805-1.456,3.449-1.144,4.531-0.603"/>
			<path style="fill:none;stroke:#FFFFFF;stroke-width:0.5;stroke-linecap:round;stroke-linejoin:round;stroke-miterlimit:10;" d="
				M105.932,144.196c-1.555-2.824,1.149-7.053,3.064-7.865c1.124-0.479,2.138-0.156,2.83,0.234"/>
			<path style="fill:none;stroke:#FFFFFF;stroke-width:0.5;stroke-linecap:round;stroke-linejoin:round;stroke-miterlimit:10;" d="
				M107.799,143.025c-0.827-0.915-0.718-2.611,0.739-4.244c1.103-1.233,2.159-0.962,2.819-0.567"/>
			<path style="fill:none;stroke:#FFFFFF;stroke-width:0.5;stroke-linecap:round;stroke-linejoin:round;stroke-miterlimit:10;" d="
				M109.131,141.813c-0.224-0.463-0.312-1.066,0.276-1.576c0.447-0.385,0.837-0.432,1.149-0.343"/>
			<path style="fill:none;stroke:#FFFFFF;stroke-width:0.5;stroke-linecap:round;stroke-linejoin:round;stroke-miterlimit:10;" d="
				M90.374,135.894v-0.005c0.525-2.07,1.821-5.098,4.999-7.48c3.985-2.991,6.445-3.09,8.239-5.092
				c1.352-1.519,1.472-3.516,0.728-5.134"/>
			<path style="fill:none;stroke:#FFFFFF;stroke-width:0.5;stroke-linecap:round;stroke-linejoin:round;stroke-miterlimit:10;" d="
				M102.02,117.746c0.593,0.619,1.077,1.561,0.801,2.892c-0.853,4.151-9.701,5.15-12.551,10.825"/>
			<path style="fill:none;stroke:#FFFFFF;stroke-width:0.5;stroke-linecap:round;stroke-linejoin:round;stroke-miterlimit:10;" d="
				M99.461,117.839c0.718,0.39,1.311,1.02,1.15,2.029c-0.567,3.485-7.771,5.03-10.341,9.129"/>
			<path style="fill:none;stroke:#FFFFFF;stroke-width:0.5;stroke-linecap:round;stroke-linejoin:round;stroke-miterlimit:10;" d="
				M97.25,118.432c0.463,0.244,0.853,0.671,0.78,1.436c-0.234,2.362-5.171,3.849-7.589,6.799"/>
			<path style="fill:none;stroke:#FFFFFF;stroke-width:0.5;stroke-linecap:round;stroke-linejoin:round;stroke-miterlimit:10;" d="
				M95.014,119.608c0.239,0.26,0.411,0.614,0.348,1.082c-0.109,0.843-2.117,1.269-3.729,2.627"/>
			<path style="fill:none;stroke:#FFFFFF;stroke-width:0.5;stroke-linecap:round;stroke-linejoin:round;stroke-miterlimit:10;" d="
				M106.904,119.353c0,0.005,0,0.005,0,0.005c0.13,0.874,0.109,2.096-0.588,3.287c-1.071,1.841-1.914,3.293-1.009,5.3
				c0.837,1.847,3.085,3.433,6.731,3.371"/>
			<path style="fill:none;stroke:#FFFFFF;stroke-width:0.5;stroke-linecap:round;stroke-linejoin:round;stroke-miterlimit:10;" d="
				M109.167,121.236c-0.104,0.889-0.437,2.018-1.306,3.136c-1.425,1.847-0.25,5.415,4.177,5.02"/>
			<path style="fill:none;stroke:#FFFFFF;stroke-width:0.5;stroke-linecap:round;stroke-linejoin:round;stroke-miterlimit:10;" d="
				M110.613,123.207c-0.619,0.733-1.425,1.555-1.503,2.32c-0.135,1.342,0.687,2.689,2.892,2.242"/>
			<path style="fill:none;stroke:#FFFFFF;stroke-width:0.5;stroke-linecap:round;stroke-linejoin:round;stroke-miterlimit:10;" d="
				M111.778,126.219c-0.473-0.167-0.458-0.572-0.271-0.993"/>
			<path style="fill:#FFFFFF;" d="M101.98,126.3c0,0,1.169-0.499,1.63-0.979c0,0-0.137,1.097,0.094,1.715
				C103.704,127.035,103.146,126.455,101.98,126.3z"/>
			<path style="fill:#FFFFFF;" d="M106.37,131.014c0,0,0.172,0.652-0.137,1.372c0,0,0.995-0.583,1.543-0.686
				C107.776,131.7,106.816,131.425,106.37,131.014z"/>
		</g>
	</g>
</g>
<g id="Character">
	<g>
		<path style="fill:#EBB376;" d="M119.263,204.866c-1.098,3.91,4.176,18.508,13.275,18.376
			C141.637,223.11,120.757,199.545,119.263,204.866z"/>
		<path style="opacity:0.2;enable-background:new    ;" d="M119.263,204.866c-1.098,3.91,4.176,18.508,13.275,18.376
			C141.637,223.11,120.757,199.545,119.263,204.866z"/>
		<path style="fill:#EBB376;" d="M150.422,194.583c0,0,2.643-2.132,3.229-3.052c0.586-0.921,6.385-1.292,7.23-1.166
			c0.845,0.126-0.313,4.881-0.514,5.528c-0.201,0.647-5.732,1.833-6.471,1.617C153.159,197.295,150.422,194.583,150.422,194.583z"/>
		<path style="opacity:0.2;enable-background:new    ;" d="M150.422,194.583c0,0,2.643-2.132,3.229-3.052
			c0.586-0.921,6.385-1.292,7.23-1.166c0.845,0.126-0.313,4.881-0.514,5.528c-0.201,0.647-5.732,1.833-6.471,1.617
			C153.159,197.295,150.422,194.583,150.422,194.583z"/>
		<path style="fill:#EBB376;" d="M171.691,199.505c0,0,1.071-1.038,1.226-1.434c0.155-0.396-0.045-8.159-0.613-8.456
			c-0.568-0.297-5.859,0.643-6.304,1.385s0.544,7.813,0.593,8.209c0.049,0.396,2.833,1.088,2.833,1.088L171.691,199.505z"/>
		<g>
			<path style="fill:#263238;" d="M172.119,183.892l-0.645-0.057l-4.609-0.405l-0.645-0.057c-0.533-0.047-1.047,0.346-1.149,0.878
				l-2.256,11.77c-0.102,0.532,0.247,1.001,0.78,1.048l0.645,0.057l4.609,0.405l0.645,0.057c0.533,0.047,1.047-0.346,1.149-0.878
				l2.256-11.77C173.001,184.408,172.652,183.939,172.119,183.892z"/>
			<path style="opacity:0.2;fill:#FFFFFF;enable-background:new    ;" d="M171.474,183.836l-5.254-0.462
				c-0.533-0.047-1.047,0.346-1.149,0.878l-2.256,11.77c-0.102,0.532,0.247,1.001,0.78,1.048l5.254,0.462
				c0.533,0.047,1.047-0.346,1.149-0.878l2.256-11.77C172.356,184.352,172.007,183.883,171.474,183.836z"/>
			<polygon style="fill:#407BFF;" points="169.459,196.468 163.215,195.918 165.447,184.273 171.691,184.823 			"/>
			<polygon style="opacity:0.6;fill:#FFFFFF;enable-background:new    ;" points="169.459,196.468 163.215,195.918 165.447,184.273 
				171.691,184.823 			"/>
		</g>
		<path style="fill:#EBB376;" d="M146.014,398.849l5.059,0.081c5.14-24.145,8.775-54.025,11.037-76.565
			c0.353-3.534,0.676-6.877,0.959-9.997c0.131-1.484,0.263-2.908,0.384-4.282c0.606-6.776,1.02-12.148,1.273-15.47
			c0.182-2.423,0.273-3.757,0.273-3.757h-18.278l0.172,4.655l0.566,15.37l0.061,1.757l0.384,10.149l0.636,17.278
			C142.267,362.394,146.014,398.849,146.014,398.849z"/>
		<path style="fill:#EBB376;" d="M105.015,397.556l4.978,0.939c9.967-24.912,19.328-56.813,25.417-79.099
			c0.939-3.454,1.808-6.685,2.585-9.613c0.04-0.151,0.071-0.293,0.111-0.434c1.535-5.817,2.716-10.452,3.454-13.39
			c0.566-2.302,0.879-3.565,0.879-3.565l-18.015-3.11l-1.02,7.574l-1.505,11.128l-0.293,2.181l-1.02,7.584l-2.737,20.338
			C107.53,360.99,105.015,397.556,105.015,397.556z"/>
		<path style="opacity:0.2;enable-background:new    ;" d="M121.899,307.985l16.097,1.797c0.04-0.151,0.071-0.293,0.111-0.434
			c1.535-5.817,2.716-10.452,3.454-13.39l-18.157,0.899L121.899,307.985z"/>
		<path style="opacity:0.2;enable-background:new    ;" d="M146.892,293.514l0.566,15.37l0.061,1.757l15.551,1.727
			c0.131-1.484,0.263-2.908,0.384-4.282c0.606-6.776,1.02-12.148,1.273-15.47L146.892,293.514z"/>
		<path style="fill:#263238;" d="M160.95,415.631c-0.941-0.762-2.014-1.346-3.166-1.722l0,0c0,0-3.443-3.416-5.1-13.7l-4.508-1.176
			c-1.568-0.38-3.206,0.26-4.101,1.601c-0.125,0.182-0.222,0.382-0.287,0.592c-0.232,1.103-0.393,2.219-0.481,3.342
			c-0.453,3.48-0.065,11.293-0.065,11.293h0.815l0.324-7.091c0.12-2.407,1.962,0.417,2.49,3.008c0.528,2.592,1.648,5.35,6.924,5.48
			C159.95,417.381,162.505,417.14,160.95,415.631z"/>
		<path style="fill:#263238;" d="M143.918,400.719c-0.296-2.407-0.389-6.591-0.389-6.591l10.016,1.111c0,0-1.213,4.758-0.213,8.331
			C148.287,402.246,143.918,400.719,143.918,400.719z"/>
		<path style="fill:#263238;" d="M120.195,415.631c-0.941-0.762-2.014-1.346-3.166-1.722l0,0c0,0-3.443-3.416-5.101-13.7
			l-4.508-1.176c-1.568-0.38-3.206,0.26-4.101,1.601c-0.125,0.182-0.222,0.382-0.287,0.592c-0.232,1.103-0.393,2.219-0.481,3.342
			c-0.454,3.48-0.065,11.293-0.065,11.293h0.815l0.324-7.091c0.12-2.407,1.962,0.417,2.49,3.008c0.528,2.592,1.648,5.35,6.924,5.48
			C119.195,417.381,121.75,417.14,120.195,415.631z"/>
		<path style="fill:#263238;" d="M103.162,400.719c-0.296-2.407-0.389-6.591-0.389-6.591l10.016,1.111c0,0-1.213,4.758-0.213,8.331
			C107.532,402.246,103.162,400.719,103.162,400.719z"/>
		<g>
			<g>
				<path style="fill:#263238;" d="M155.523,180.747c-0.144,0.581-0.506,0.992-0.807,0.917c-0.302-0.075-0.429-0.607-0.285-1.188
					c0.144-0.581,0.506-0.992,0.807-0.917C155.54,179.634,155.667,180.166,155.523,180.747z"/>
				<path style="fill:#263238;" d="M155.106,179.556l1.107-0.252C156.212,179.304,155.459,180.246,155.106,179.556z"/>
			</g>
			<path style="fill:#D58745;" d="M153.778,181.895c0,0,0.259,2.14,0.895,3.584c0,0-0.939,0.701-2.09,0.08L153.778,181.895z"/>
			<path style="fill:#EBB376;" d="M136.555,186.448c0.049,0.085,0.107,0.173,0.171,0.244c0.804,1.115,1.776,2.252,3.053,3.039
				c3.569,2.212,6.396,2.583,8.719,1.418c0.009,0.003,0.009,0.003,0.009,0.003c3.313-1.806,5.503-6.257,7.074-11.991
				c0.728-2.627,1.123-4.993,1.006-6.979c-0.003-0.02,0.019-0.085,0.016-0.105c-0.011-0.082-0.004-0.189-0.015-0.271
				c-0.231-2.797-1.455-4.975-4.042-6.598c-0.895-0.559-1.956-1.062-3.194-1.503C138.437,159.862,130.29,177.334,136.555,186.448z"
				/>
			<path style="opacity:0.2;enable-background:new    ;" d="M136.726,186.692c0.804,1.115,1.828,2.099,3.105,2.885
				c3.569,2.212,6.439,2.456,8.771,1.265c-2.045-0.227-4.657-0.94-6.755-2.935C140.523,186.655,138.654,186.429,136.726,186.692z"/>
			<path style="fill:#EBB376;" d="M132.245,196.207c-1.737,2.89,1.871,5.536,1.871,5.536c7.568-0.573,9.991-3.669,9.991-3.669
				c-4.534-4.75-0.171-12.34-0.171-12.34l-1.31,0.17l-8.395-1.139c0,0,0.758,4.934,0.722,5.988c-0.003,0.009,0.003,0.02,0,0.029
				C134.733,196.281,132.245,196.207,132.245,196.207z"/>
			<path style="fill:#263238;" d="M156.616,172.111c0,0-2.011,7.888-10.413,8.709c0,0-5.842,6.916-10.482,5.462
				c-6.326-1.982-8.816-12.791-3.548-21.143C139.003,154.308,157.192,159.43,156.616,172.111z"/>
			<path style="fill:#EBB376;" d="M150.639,179.869c0.405-1.199,0.127-3.54-1.828-3.9c-2.024-0.373-4.71,4.015-0.334,6.689
				C149.105,183.042,149.794,182.371,150.639,179.869z"/>
			<path style="fill:#263238;" d="M146.018,159.394c0,0,7.959,0.641,11.007,4.967c3.559,5.051,4.141,9.222-3.34,12.84
				c0,0-10.947-8.177-15.324-8.724c-4.378-0.548-7.709-0.351-7.709-0.351C132.556,159.707,142.491,156.34,146.018,159.394z"/>
			<path style="fill:#263238;" d="M137.66,163.827c0,0-4.605-8.571-11.579-6.906c-6.975,1.666-7.888,7.623-7.508,13.464
				c0.38,5.841-0.772,16.592-5.372,18.648c0,0,4.325,2.865,8.94-2.111c4.616-4.976,5.395-21.55,13.067-18.737L137.66,163.827z"/>
			
				<path style="fill:none;stroke:#263238;stroke-width:0.7247;stroke-linecap:round;stroke-linejoin:round;stroke-miterlimit:10;" d="
				M153.258,176.195c0,0,1.33-0.341,2.828,0.897"/>
		</g>
		<path style="fill:#407BFF;" d="M161.07,242.18l-29.9,2.9c-1.39-21.36-11.91-40.21-11.91-40.21s-1.41-4.85,12.52-8.65
			c13.93-3.79,23.17-0.68,23.17-0.68c2.95,4.01,4.65,10.08,5.59,16.53c0.37,2.49,0.63,5.03,0.8,7.53
			C162.12,231.34,161.07,242.18,161.07,242.18z"/>
		<g>
			<path style="fill:#263238;" d="M162.224,244.112L162.224,244.112l-0.599-5.889l-31.652,3.18l0.66,4.614l0.01-0.001
				c-11.922,21.106-9.034,45.175-9.034,45.175l-1.447,11.834c0,0,2.991,1.856,23.044,3.163c17.634,1.149,22.115-0.678,22.115-0.678
				C171.563,268.885,166.205,251.451,162.224,244.112z"/>
			<g>
				<polygon style="fill:#263238;" points="148.533,244.519 162.774,243.391 162.584,239.078 148.215,240.584 				"/>
				<polygon style="fill:#263238;" points="134.275,245.647 147.505,244.6 147.19,240.691 133.987,242.075 				"/>
				<polygon style="fill:#263238;" points="132.962,242.182 129.601,242.534 130.03,245.983 133.248,245.729 				"/>
				<g style="opacity:0.3;enable-background:new    ;">
					<polygon style="fill:#FFFFFF;" points="148.533,244.519 162.774,243.391 162.584,239.078 148.215,240.584 					"/>
					<polygon style="fill:#FFFFFF;" points="134.275,245.647 147.505,244.6 147.19,240.691 133.987,242.075 					"/>
					<polygon style="fill:#FFFFFF;" points="132.962,242.182 129.601,242.534 130.03,245.983 133.248,245.729 					"/>
				</g>
			</g>
		</g>
		<path style="fill:#EBB376;" d="M154.951,195.539c0,0-5.47-0.522-5.006,6.204c0.257,3.727,3.313,11.082,6.684,11.741
			c1.999,0.391,2.931-2.798,2.931-2.798s9.323,10.374,13.989,9.025c4.666-1.348-1.714-21.129-1.714-21.129l-3.658,0.396
			c0,0,2.603,10.286,1.811,11.077C169.198,210.846,157.485,196.138,154.951,195.539z"/>
		<path style="opacity:0.2;enable-background:new    ;" d="M161.34,219.6c-3.67-2.65-6.67-12.71-6.67-12.71l4.89,3.8
			c0,0,0.41,0.55,0.98,1.38C160.91,214.56,161.17,217.1,161.34,219.6z"/>
	</g>
</g>
</svg>
